<?xml version="1.0" standalone="no"?>
<!DOCTYPE svg PUBLIC "-//W3C//DTD SVG 1.1//EN" "http://www.w3.org/Graphics/SVG/1.1/DTD/svg11.dtd" >
<svg xmlns="http://www.w3.org/2000/svg" xmlns:xlink="http://www.w3.org/1999/xlink" version="1.1">
<metadata></metadata>
<defs>
<font id="mir_mediumregular" horiz-adv-x="1177" >
<font-face units-per-em="2048" ascent="1638" descent="-410" />
<missing-glyph horiz-adv-x="448" />
<glyph unicode="&#xfb01;" horiz-adv-x="1136" d="M34 836v102q0 20 23 20h141v188q0 161 68 234.5t211 73.5q37 0 91.5 -9.5t80.5 -22.5q10 -4 10 -12q0 -1 -12 -114q-2 -8 -8 -8q-5 0 -13 2q-51 10 -106 10q-71 0 -105 -33t-34 -135v-174h552q22 0 22 -26v-795l119 -26q18 -5 18 -19v-66q0 -20 -23 -22 q-175 -12 -273 -19q-22 0 -24 23v807h-391v-792q0 -9 -6 -16t-16 -7h-141q-20 0 -20 23v792h-141q-9 0 -16 5.5t-7 15.5zM753 1237q0 48 30 78t80 30t80.5 -30t30.5 -78q0 -47 -30.5 -77.5t-80.5 -30.5t-80 30.5t-30 77.5z" />
<glyph unicode="&#xfb02;" horiz-adv-x="1197" d="M34 836v102q0 20 23 20h141v188q0 157 68 232t206 75h430q18 0 32 -10.5t14 -32.5v-1117q0 -96 43 -133t118 -37q12 0 58 4q6 0 7 -10l13 -114q0 -10 -8 -13q-35 -15 -139 -15q-68 0 -118 17t-80 46.5t-48 76.5t-24 98.5t-6 121.5v920q0 30 -9 53h-194q-95 0 -137.5 -35 t-42.5 -141v-174h234q24 0 24 -20v-102q0 -10 -7.5 -15.5t-16.5 -5.5h-234v-792q0 -9 -6 -16t-16 -7h-141q-20 0 -20 23v792h-141q-9 0 -16 5.5t-7 15.5z" />
<glyph unicode="&#xfb03;" horiz-adv-x="1703" d="M34 836v102q0 20 23 20h141v188q0 163 69.5 236t215.5 73q79 0 166 -30q10 -4 10 -12q0 -4 -12 -117q-2 -8 -8 -8q-5 0 -13 2q-64 14 -111 14q-67 0 -100.5 -36t-33.5 -136v-174h390v188q0 161 68.5 234t211.5 73q95 0 183 -31q10 -4 10 -12q0 -4 -12 -117q-2 -8 -8 -8 t-14 2q-59 13 -110 13q-72 0 -109 -33t-37 -135v-174h546q10 0 17 -7t7 -19v-795l117 -26q18 -5 18 -19v-66q0 -20 -22 -22q-182 -12 -273 -19q-24 0 -24 23v807h-386v-792q0 -9 -5.5 -16t-14.5 -7h-142q-21 0 -21 23v792h-390v-792q0 -9 -6 -16t-16 -7h-141q-20 0 -20 23 v792h-141q-9 0 -16 5.5t-7 15.5zM1321 1237q0 48 30 78t80 30t80 -30t30 -78q0 -47 -30 -77.5t-80 -30.5t-80 30.5t-30 77.5z" />
<glyph unicode="&#xfb04;" horiz-adv-x="1757" d="M34 836v102q0 20 23 20h141v188q0 158 66 234t203 76q86 0 182 -33q10 -4 10 -12q0 -2 -12 -115q-2 -8 -8 -8q-5 0 -13 2q-64 14 -109 14q-67 0 -101.5 -36t-34.5 -136v-174h384v188q0 157 65.5 230t203.5 73h428q18 0 32 -10t14 -32v-1114q0 -170 161 -170l54 3 q14 0 16 -16l8 -99q0 -21 -14 -24q-51 -12 -143 -12q-144 0 -205.5 80.5t-61.5 235.5v1013h-200q-48 0 -77 -6t-53 -23.5t-34.5 -52.5t-10.5 -90v-174h235q24 0 24 -20v-102q0 -10 -7.5 -15.5t-16.5 -5.5h-235v-792q0 -9 -5.5 -16t-14.5 -7h-143q-20 0 -20 23v792h-384v-792 q0 -9 -6 -16t-16 -7h-141q-20 0 -20 23v792h-141q-9 0 -16 5.5t-7 15.5z" />
<glyph horiz-adv-x="0" />
<glyph horiz-adv-x="0" />
<glyph horiz-adv-x="682" />
<glyph unicode="&#xd;" horiz-adv-x="448" />
<glyph unicode=" "  horiz-adv-x="448" />
<glyph unicode="&#x09;" horiz-adv-x="448" />
<glyph unicode="&#xa0;" horiz-adv-x="448" />
<glyph unicode="!" horiz-adv-x="526" d="M135 110q0 55 36.5 92t91.5 37q54 0 91 -37t37 -92t-36.5 -90t-91.5 -35q-56 0 -92 35t-36 90zM155 1284q0 12 5.5 16.5t19.5 4.5h172q25 0 25 -23l-32 -871q-2 -23 -18 -23h-121q-20 0 -20 22q-31 845 -31 874z" />
<glyph unicode="&#x22;" horiz-adv-x="663" d="M78 1423q0 20 20 20h170q9 0 14 -7t5 -13q-37 -334 -50 -430q-3 -18 -24 -18h-79q-20 0 -22 18q-16 175 -34 430zM378 1423q0 20 19 20h170q20 0 20 -20q-4 -31 -22 -192.5t-28 -237.5q-3 -18 -24 -18h-79q-10 0 -16 5.5t-6 12.5q-26 295 -34 430z" />
<glyph unicode="#" horiz-adv-x="1096" d="M78 384v98q0 16 20 16h164l42 311h-145q-21 0 -21 15v99q0 15 21 15h163l47 343q4 24 23 24h94q30 0 30 -25q-8 -64 -24 -181t-22 -161h226l46 343q4 24 24 24h95q29 0 29 -25q-8 -64 -24 -181t-22 -161h146q21 0 21 -15v-101q0 -13 -19 -13h-165l-43 -311h147 q20 0 20 -16v-100q0 -13 -20 -13h-164l-47 -342q-3 -27 -30 -27h-94q-24 0 -24 23l46 346h-226l-46 -342q-3 -27 -30 -27h-95q-22 0 -22 23l46 346h-147q-20 0 -20 15zM411 498h225q32 236 43 311h-226q-38 -283 -42 -311z" />
<glyph unicode="$" horiz-adv-x="1054" d="M91 962q0 91 28 159t79.5 110t115.5 64.5t143 29.5v131q0 18 4.5 24t20.5 6h62q19 0 23 -5t4 -24v-130q150 -5 302 -43q24 -7 24 -27l-7 -209q-2 -18 -20 -18h-75q-14 0 -19 17l-37 117q-104 18 -168 18v-429q41 -15 61.5 -23t60 -24.5t61 -28.5t54.5 -32.5t52 -40 t41.5 -46.5t34.5 -56t20 -66t8 -78q0 -119 -51.5 -202.5t-137.5 -124.5t-204 -50v-145q0 -18 -5.5 -23.5t-24.5 -5.5h-55q-19 0 -24 5t-5 23v143q-93 3 -178 18t-118.5 25.5t-44.5 16.5q-21 10 -21 27l7 208q2 19 20 19h76q13 0 18 -18l36 -113q110 -34 206 -34v470 q-48 18 -79 30t-73.5 32.5t-69.5 39t-57.5 46.5t-47.5 58.5t-28.5 71t-11.5 87.5zM285 969q0 -65 45 -108.5t127 -73.5v385q-88 -18 -130 -66t-42 -137zM571 136q89 20 143 72.5t54 142.5q0 77 -52 126.5t-145 85.5v-427z" />
<glyph unicode="%" horiz-adv-x="1635" d="M67 987q0 153 85.5 247.5t233.5 94.5q145 0 232 -95t87 -247q0 -156 -85 -251t-234 -95q-145 0 -232 91t-87 255zM221 981q0 -96 42 -152t121 -56q82 0 123.5 55.5t41.5 152.5q0 96 -42.5 153.5t-122.5 57.5q-79 0 -121 -56.5t-42 -154.5zM410 5q0 5 10 25l616 1260 q9 16 26 16h127q19 0 19 -15q0 -5 -7 -19l-619 -1268q-7 -15 -28 -15h-125q-19 0 -19 16zM931 324q0 153 85.5 247.5t233.5 94.5q145 0 232 -95t87 -247q0 -156 -85 -251.5t-234 -95.5q-145 0 -232 91.5t-87 255.5zM1081 317q0 -98 43 -155t123 -57q84 0 127 57t43 155 t-43.5 156.5t-126.5 58.5q-80 0 -123 -57.5t-43 -157.5z" />
<glyph unicode="&#x26;" horiz-adv-x="1288" d="M66 312q0 185 259 407l-43 50q-65 76 -100.5 138.5t-35.5 129.5q0 134 88 212t221 78q126 0 211.5 -80t85.5 -197q0 -64 -22.5 -117.5t-60 -98t-119.5 -126.5l247 -268q166 194 176 203q22 23 47 30t62 7h97q17 0 22.5 -6t5.5 -22v-93q0 -17 -5 -22.5t-23 -5.5 q-103 0 -137 -36q-116 -137 -141 -166q34 -40 81.5 -91t59.5 -64q27 -30 80 -30h56q17 0 21.5 -4.5t4.5 -21.5v-98q0 -16 -5 -21t-22 -5h-88q-81 0 -121 35q-9 8 -171 182q-110 -123 -204 -176.5t-207 -53.5q-137 0 -228.5 94t-91.5 237zM245 325q0 -79 48.5 -133.5 t121.5 -54.5q58 0 120 43.5t156 144.5l-258 278q-43 -39 -65.5 -61t-56.5 -61.5t-50 -78t-16 -77.5zM316 1041q0 -48 30.5 -96t100.5 -127q72 67 104.5 113.5t32.5 103.5q0 68 -35.5 109.5t-93.5 41.5q-63 0 -101 -39t-38 -106z" />
<glyph unicode="'" horiz-adv-x="365" d="M78 1423q0 20 20 20h170q9 0 14 -7t5 -13q-37 -334 -50 -430q-3 -18 -24 -18h-79q-20 0 -22 18q-16 175 -34 430z" />
<glyph unicode="(" horiz-adv-x="592" d="M81 665q0 258 92.5 508t266.5 461q6 8 15 8q6 0 13 -4l81 -54q13 -8 13 -15q0 -8 -4 -13q-309 -397 -309 -897q0 -492 310 -890q3 -5 3 -12q0 -9 -13 -16l-84 -53q-7 -4 -13 -4q-9 0 -17 10q-173 212 -263.5 459t-90.5 512z" />
<glyph unicode=")" horiz-adv-x="591" d="M29 -244q0 6 4 13q310 398 310 890q0 498 -310 897q-4 5 -4 13q0 7 13 15l82 54q7 4 12 4q10 0 16 -8q174 -211 266.5 -461t92.5 -508q0 -274 -88 -524.5t-266 -446.5q-10 -10 -16 -10q-7 0 -14 4l-85 53q-13 9 -13 15z" />
<glyph unicode="*" horiz-adv-x="704" d="M67 1204q0 5 2 13l27 86q3 9 12 9h2l2 -1q97 -37 166 -66l24 -12l-11 187q0 13 6 18.5t25 5.5h71q31 0 31 -23l-10 -158q0 -5 -0.5 -15.5t-0.5 -15.5l1 1q2 1 3.5 2.5t3.5 1.5l182 73q2 1 6 1q8 0 12 -15l24 -86q1 -3 1 -8q0 -13 -16 -17l-174 -58q3 -2 23 -28l92 -128 q9 -13 9 -19t-12 -16l-74 -53q-7 -5 -12 -5q-10 0 -21 17l-106 164q-3 -4 -16 -28l-89 -135q-11 -17 -22 -17q-9 0 -23 11l-61 46q-9 8 -9 15q0 11 11 26q29 42 96 130l15 20q-4 0 -31 10l-144 48q-15 5 -15 19z" />
<glyph unicode="+" horiz-adv-x="921" d="M93 501v119q0 17 19 17h264v266q0 19 15 19h134q18 0 18 -17v-268h267q11 0 14.5 -3.5t3.5 -12.5v-118q0 -19 -17 -19h-268v-272q0 -11 -4 -15t-15 -4h-130q-18 0 -18 17v274h-263q-20 0 -20 17z" />
<glyph unicode="," horiz-adv-x="401" d="M46 -237l83 456q2 15 19 15h195q16 0 16 -11q0 -3 -1 -5l-171 -451q-7 -17 -17 -17h-111q-13 0 -13 13z" />
<glyph unicode="-" horiz-adv-x="647" d="M96 485v135q0 17 18 17h418q11 0 14.5 -3.5t3.5 -12.5v-134q0 -18 -16 -18h-419q-19 0 -19 16z" />
<glyph unicode="." horiz-adv-x="443" d="M94 109q0 55 36.5 92t91.5 37q54 0 91 -37t37 -92t-36.5 -90t-91.5 -35q-56 0 -92 35t-36 90z" />
<glyph unicode="/" horiz-adv-x="751" d="M31 -276q0 4 3 14l589 1864q5 16 22 16h129q16 0 16 -11l-4 -14l-588 -1865q-4 -11 -9 -14t-18 -3h-123q-17 0 -17 13z" />
<glyph unicode="0" horiz-adv-x="1147" d="M95 641q0 210 50.5 360.5t161 237t274.5 86.5q101 0 181.5 -33.5t134 -92.5t89.5 -143t51.5 -180.5t15.5 -209.5q0 -154 -28.5 -278t-86 -217.5t-152.5 -144t-222 -50.5q-122 0 -213 49t-146.5 139t-82.5 209.5t-27 267.5zM281 655q0 -121 14 -212t46 -162t89 -107.5 t138 -36.5q67 0 118.5 26t85 71.5t55 113t30.5 145t9 173.5q0 498 -295 498q-290 0 -290 -509z" />
<glyph unicode="1" horiz-adv-x="745" d="M61 1185q0 19 18 24q77 16 346 99q47 12 49 13q15 0 15 -23v-1155l127 -28q16 -4 20 -9t4 -19v-63q0 -14 -5.5 -19t-20.5 -5h-437q-16 0 -21 5t-5 19v63q0 14 4 19t20 9l126 28v967q-74 -30 -218 -53q-13 0 -14 13q-1 36 -3 61.5t-3.5 37t-1.5 16.5z" />
<glyph unicode="2" horiz-adv-x="1061" d="M74 26q3 282 308 513q29 22 78 58.5t72 54t59 46.5t52.5 47t38.5 44t31.5 48.5t16.5 50.5t7 58q0 101 -70 158.5t-179 57.5q-92 0 -157.5 -47t-91.5 -147q-4 -14 -17 -14l-128 32q-15 4 -15 15q0 5 1 8l3 12q28 129 135.5 217t276.5 88q191 0 309 -103t118 -269 q0 -91 -36 -170.5t-91 -137.5t-139 -118q-39 -29 -79.5 -58t-62 -44.5t-38.5 -28.5q-82 -61 -132.5 -128t-53.5 -115h497l38 120q6 18 22 18h76q19 0 19 -20v-249q0 -23 -19 -23h-823q-12 0 -19 8t-7 18z" />
<glyph unicode="3" horiz-adv-x="1010" d="M78 1028v256q5 20 21 20h772q6 0 13.5 -5.5t7.5 -14.5q0 -8 -5 -15q-109 -156 -187.5 -267t-115.5 -162.5t-52 -72.5q43 -1 86 -8.5t98 -30t96.5 -57.5t70 -97t28.5 -143q0 -140 -75.5 -244.5t-206 -157.5t-298.5 -53q-157 0 -221 23q-16 7 -16 18l15 103q3 22 21 22 q78 -12 162 -12q116 0 211 31.5t155.5 99.5t60.5 162q0 205 -296 205q-67 0 -140 -6q-10 0 -18 6t-8 16t9 24l342 485h-377l-41 -126q-5 -16 -18 -16h-75q-19 0 -19 17z" />
<glyph unicode="4" horiz-adv-x="1056" d="M90 328v85q0 32 25 84l395 788q7 18 26 18h152q7 0 12.5 -5t5.5 -11q0 -2 -2 -5l-1 -4l-415 -827h357q0 41 -0.5 125t-0.5 125q0 23 21 23h141q19 0 19 -23q0 -41 0.5 -125t0.5 -125h121q24 0 24 -21v-108q0 -21 -24 -21h-122v-278q0 -23 -19 -23h-141q-21 0 -21 23v278 h-526q-28 0 -28 27z" />
<glyph unicode="5" horiz-adv-x="975" d="M94 11l17 111q3 14 19 14q53 -6 128 -6q78 0 148 16t131 50t97 95t36 142q0 60 -22.5 103.5t-61 66.5t-82.5 33t-95 10q-83 0 -244 -12q-9 0 -13.5 4t-4.5 17l44 624q2 26 34 26h584q9 0 16.5 -6t7.5 -16v-112q0 -19 -25 -19h-450l-26 -359q42 5 83 5q70 0 130.5 -9.5 t120.5 -34t102.5 -63.5t68.5 -103t26 -147q0 -118 -45.5 -209t-124.5 -146.5t-180.5 -83t-219.5 -27.5h-31q-78 0 -154 18q-14 3 -14 18z" />
<glyph unicode="6" horiz-adv-x="1084" d="M132 493q0 203 66 368t205 287t342 180q1 0 7 1.5t9 1.5q11 0 14 -7l35 -121q0 -8 -11 -13q-195 -64 -321.5 -195.5t-160.5 -321.5q39 49 109 88.5t164 39.5q167 0 274 -113.5t107 -294.5q0 -179 -119.5 -297.5t-299.5 -118.5q-420 0 -420 516zM317 386q0 -102 64.5 -174 t162.5 -72q99 0 170.5 70.5t71.5 173.5q0 130 -58.5 196.5t-169.5 66.5q-108 0 -174.5 -72.5t-66.5 -188.5z" />
<glyph unicode="7" horiz-adv-x="920" d="M46 1029v247q0 12 4 19q7 10 23 10h791q11 0 18.5 -8.5t7.5 -20.5v-116q-6 -19 -31 -67q-300 -577 -444 -1075q-5 -18 -23 -18h-153q-21 0 -21 18l12 41q164 524 458 1091h-488l-40 -122q-5 -17 -19 -17h-75q-20 0 -20 18z" />
<glyph unicode="8" horiz-adv-x="1120" d="M118 345q0 249 285 355q-123 58 -175 130.5t-52 176.5q0 98 55.5 172.5t142 111t188.5 36.5q99 0 185 -32.5t144.5 -103.5t58.5 -168q0 -103 -53.5 -179.5t-168.5 -141.5q276 -130 276 -355q0 -116 -62 -201.5t-161.5 -127.5t-221.5 -42q-125 0 -223.5 41t-158 126 t-59.5 202zM301 353q0 -108 70 -166.5t182 -58.5t188 56t76 159q0 99 -76.5 170.5t-181.5 103.5q-106 -28 -182 -98t-76 -166zM353 990q0 -77 65 -132t150 -80q85 25 145 82.5t60 127.5q0 89 -59 139t-150 50q-89 0 -150 -48.5t-61 -138.5z" />
<glyph unicode="9" horiz-adv-x="1092" d="M108 901q0 184 119.5 304.5t307.5 120.5q96 0 172 -29t125 -78.5t81 -119t45.5 -145.5t13.5 -164q0 -391 -172 -602.5t-524 -211.5q-15 0 -61 2q-31 2 -31 23l11 103q2 22 21 22h26q248 0 382.5 125t155.5 357q-107 -133 -285 -133q-177 0 -282 119.5t-105 306.5z M290 898q0 -124 61 -197.5t179 -74.5q116 0 182.5 76t66.5 201q0 106 -69.5 183.5t-174.5 77.5t-175 -78t-70 -188z" />
<glyph unicode=":" horiz-adv-x="481" d="M113 114q0 55 36.5 92t91.5 37q54 0 91 -37t37 -92t-36.5 -90t-91.5 -35q-56 0 -92 35t-36 90zM115 803q0 55 36.5 92.5t91.5 37.5q53 0 90 -37.5t37 -92.5q0 -54 -36.5 -90t-90.5 -36q-56 0 -92 35.5t-36 90.5z" />
<glyph unicode=";" horiz-adv-x="451" d="M40 -237l83 456q2 15 19 15h195q16 0 16 -11q0 -2 -172 -459q-6 -14 -19 -14h-109q-13 0 -13 13zM117 803q0 55 36.5 92.5t91.5 37.5q54 0 91 -37.5t37 -92.5t-36.5 -90.5t-91.5 -35.5q-56 0 -92 35.5t-36 90.5z" />
<glyph unicode="&#x3c;" horiz-adv-x="872" d="M78 496v125q0 21 14 28l636 358q6 3 11 3q12 0 17 -14l52 -105q3 -5 3 -9q0 -9 -12 -16l-539 -308l539 -310q11 -7 11 -17q0 -2 -2 -8l-52 -106q-6 -13 -17 -13q-3 0 -11 4l-636 359q-14 8 -14 29z" />
<glyph unicode="=" horiz-adv-x="915" d="M93 336v122q0 17 18 17h693q11 0 14.5 -3.5t3.5 -12.5v-122q0 -19 -17 -19h-693q-19 0 -19 18zM93 658v123q0 18 18 18h693q18 0 18 -18v-121q0 -10 -3.5 -14t-13.5 -4h-693q-19 0 -19 16z" />
<glyph unicode="&#x3e;" horiz-adv-x="872" d="M61 231q0 11 13 17l538 310l-538 308q-13 6 -13 17q0 4 2 8l53 105q7 14 17 14q5 0 11 -3l635 -358q16 -9 16 -28v-125q0 -21 -15 -29l-636 -359q-8 -4 -11 -4q-11 0 -17 13q-27 56 -48 98q-7 15 -7 16z" />
<glyph unicode="?" horiz-adv-x="813" d="M56 1257q0 17 15 22q10 3 18 5.5t15.5 4t10.5 2.5q146 36 251 36q55 0 105.5 -9t101 -32.5t88 -59.5t60.5 -94.5t23 -133.5q0 -43 -11 -85t-23.5 -70.5t-41 -67t-44 -57t-51.5 -58.5l-8 -9q-54 -65 -81 -121t-28 -119q0 -21 -18 -21h-137q-17 0 -17 20v5q0 91 33.5 171 t112.5 168q62 68 93.5 121.5t31.5 117.5q0 89 -51 137.5t-150 48.5q-75 0 -154 -17l-29 -110q-4 -17 -21 -17h-58q-17 0 -18 18q-5 58 -9.5 105t-6 66t-2.5 33zM242 109q0 55 36 92t91 37q54 0 91 -37t37 -92t-36.5 -90t-91.5 -35t-91 35t-36 90z" />
<glyph unicode="@" horiz-adv-x="1755" d="M83 403q0 240 106 431.5t299.5 301t438.5 109.5q351 0 551 -181t200 -494q0 -156 -57 -285t-165.5 -207t-247.5 -78q-71 0 -121 35.5t-65 115.5q-57 -69 -129.5 -105t-148.5 -36q-132 0 -190.5 84.5t-58.5 224.5q0 73 18 152t55.5 155.5t90 136.5t128 97.5t161.5 37.5 q113 0 276 -63l-47 -539q-3 -26 -3 -58q0 -52 12.5 -78.5t51.5 -26.5q43 0 96 29q91 51 142.5 158t51.5 244q0 91 -20 170.5t-66 150t-114.5 121t-171.5 79.5t-231 29q-123 0 -232 -35.5t-191.5 -100t-142 -151t-90 -191.5t-30.5 -219q0 -113 21.5 -209.5t70 -181.5 t122.5 -145.5t184.5 -97.5t249.5 -41q19 0 19 -16v-77q0 -21 -22 -21q-175 2 -313.5 46t-228.5 116.5t-149.5 173t-84.5 209t-25 230.5zM670 333q0 -36 4 -62t15.5 -53.5t38 -42t66.5 -14.5q57 0 119.5 37t101.5 101q36 396 39 435q-54 20 -105 20q-77 0 -143 -66 t-101 -162.5t-35 -192.5z" />
<glyph unicode="A" d="M44 12q0 5 2 12q56 168 119.5 357t141 419.5t119.5 357.5l-99 32q-21 7 -21 27v69q0 8 6 13.5t15 5.5h383q16 0 21 -16l401 -1270q2 -6 2 -8q0 -11 -16 -11h-165q-16 0 -22 17l-94 321h-494l-98 -321q-6 -17 -22 -17h-164q-15 0 -15 12zM386 488h408l-34 116 q-147 517 -162 564q-17 -53 -78 -255t-134 -425z" />
<glyph unicode="B" horiz-adv-x="1154" d="M68 1211v75q0 19 20 19q294 7 449 7q56 0 99.5 -2.5t95 -10t90 -21t76.5 -37t62 -55.5t39 -79.5t15 -106.5q0 -111 -63.5 -181.5t-181.5 -112.5q136 -29 215 -121t79 -229q0 -181 -132 -277.5t-383 -96.5q-80 0 -161 4.5t-123 9.5l-41 4q-14 2 -19.5 8t-5.5 20v1120 l-113 42q-17 6 -17 21zM386 139q104 -8 165 -8q65 0 118.5 13.5t97.5 42.5t69 79.5t25 119.5q0 113 -83.5 172.5t-235.5 59.5h-156v-479zM387 766h167q107 0 185 59t78 147q0 108 -65 149t-182 42h-34t-31.5 -0.5t-28.5 -0.5h-25.5t-22 -0.5t-18 -0.5t-13 -0.5t-7.5 -0.5h-3 v-394z" />
<glyph unicode="C" horiz-adv-x="1085" d="M85 645q0 200 74 355t215.5 242.5t330.5 87.5q156 0 310 -61q14 -8 14 -24q-4 -142 -5 -207q0 -19 -19 -19h-76q-14 0 -19 17l-41 122q-77 24 -145 24q-202 0 -321.5 -149t-119.5 -378q0 -255 106 -392.5t330 -137.5q56 0 117 11t94 22l33 11q9 3 14 3q12 0 16 -13 l33 -102q1 -3 1 -5q0 -6 -14 -14q-8 -6 -37 -18.5t-105.5 -28.5t-161.5 -16q-303 0 -463.5 170t-160.5 500z" />
<glyph unicode="D" horiz-adv-x="1255" d="M68 1211v75q0 19 20 19q87 0 237 1t202 1q321 0 486 -164.5t165 -488.5q0 -309 -175.5 -489.5t-480.5 -180.5h-51q-126 0 -226 10q-47 5 -47 33v1121l-113 42q-17 6 -17 21zM386 1157q1 -340 1 -1020q48 -6 119 -6q215 0 344 145t129 378q0 85 -11 153.5t-42 135.5 t-81.5 112t-135.5 73t-198 28q-21 0 -62.5 0.5t-62.5 0.5z" />
<glyph unicode="E" horiz-adv-x="1022" d="M68 1211v75q0 19 20 19h838q17 0 23.5 -7t6.5 -24v-92q0 -17 -6.5 -24t-23.5 -7h-539v-374h392q18 0 24.5 -7t6.5 -24v-92q0 -16 -7 -23t-24 -7h-392v-470h542q15 0 20 -7.5t5 -22.5v-96q0 -14 -5 -21t-20 -7h-706q-15 0 -20 6.5t-5 21.5v1120l-113 42q-17 6 -17 21z" />
<glyph unicode="F" horiz-adv-x="917" d="M68 1211v75q0 19 20 19h781q18 0 24.5 -7t6.5 -24v-92q0 -17 -6.5 -24t-24.5 -7h-482v-403h373q11 0 18 -7.5t7 -18.5v-104q0 -10 -6.5 -17t-17.5 -7h-374v-566q0 -15 -5 -21.5t-21 -6.5h-138q-15 0 -20 6.5t-5 22.5v1119l-113 42q-17 6 -17 21z" />
<glyph unicode="G" horiz-adv-x="1208" d="M85 642q0 198 77.5 353t228 245t351.5 90q156 0 309 -59q9 -4 16 -12t7 -15l-7 -207q0 -19 -19 -19h-75q-15 0 -20 17q-26 80 -40 120q-100 28 -171 28q-143 0 -248.5 -73.5t-157.5 -193.5t-52 -268q0 -117 23.5 -210.5t73 -164.5t131.5 -109.5t193 -38.5q130 0 208 29 v344h-196q-11 0 -18 7.5t-7 17.5v98q0 9 7 16.5t18 7.5h360q18 0 18 -15v-531q0 -34 -40 -55q-144 -69 -349 -69q-311 0 -466 176t-155 491z" />
<glyph unicode="H" horiz-adv-x="1288" d="M68 1211v75q0 20 20 20h270q32 0 32 -33v-574h555v578q0 15 5.5 22t20.5 7h138q26 0 26 -29v-1248q0 -29 -26 -29h-138q-15 0 -20.5 7t-5.5 22v517h-555v-517q0 -15 -5 -22t-20 -7h-139q-15 0 -20 7t-5 22v1125l-115 36q-18 6 -18 21z" />
<glyph unicode="I" horiz-adv-x="658" d="M91 24v63q0 14 4 19t20 9l119 28v1018l-119 28q-16 4 -20 9.5t-4 19.5v63q0 13 5.5 18.5t20.5 5.5h425q15 0 20 -5.5t5 -18.5v-63q0 -13 -4.5 -19t-18.5 -10l-119 -28v-1018l119 -28q16 -4 19.5 -9t3.5 -19v-63q0 -14 -5 -19t-20 -5h-425q-15 0 -20.5 5t-5.5 19z" />
<glyph unicode="J" horiz-adv-x="684" d="M18 1177v103q0 9 7.5 17t18.5 8h476q9 0 15 -7t6 -16v-1251q0 -172 -66.5 -250t-208.5 -78q-68 0 -151 22q-47 13 -47 22q0 3 1 9l20 108q2 15 19 15q3 0 25 -4.5t51 -8.5t50 -4q63 0 90 39t27 112v1139h-307q-11 0 -18.5 8t-7.5 17z" />
<glyph unicode="K" horiz-adv-x="1196" d="M68 1211v75q0 19 20 19h271q17 0 24 -7.5t7 -24.5v-536h74q52 0 85 21.5t58 65.5q23 41 49 113.5t45 129t57.5 114.5t89.5 87q78 45 228 45q19 0 25 -4.5t6 -20.5v-101q0 -18 -7 -23t-25 -5q-71 0 -110 -26q-46 -30 -77.5 -96t-60 -148.5t-55.5 -123.5q-37 -58 -91 -77 q35 -14 65.5 -38.5t50 -50.5t39 -64t29.5 -64.5t24 -67.5q15 -43 20.5 -59t20 -52t24.5 -51t28 -39t36 -34t43.5 -18.5t55.5 -8.5h12q15 0 21 -6t6 -23v-98q0 -11 -6.5 -17t-15 -7.5t-24.5 -1.5q-89 0 -153 23t-108.5 73t-72.5 108t-57 149q-15 46 -27.5 77.5t-33.5 66.5 t-44.5 55.5t-58.5 34.5t-79 14h-86v-561q0 -14 -5 -21t-20 -7h-139q-15 0 -20 6.5t-5 22.5v1125l-117 36q-16 5 -16 21z" />
<glyph unicode="L" horiz-adv-x="881" d="M147 131v1145q0 15 5.5 22t20.5 7h138q26 0 26 -29v-1081q0 -25 14 -33t50 -8h314l40 105q6 17 20 17h76q19 0 19 -20v-233q0 -23 -18 -23h-539q-86 0 -126 30.5t-40 100.5z" />
<glyph unicode="M" horiz-adv-x="1492" d="M135 27l69 1250q1 9 8 18.5t18 9.5h200q25 0 36 -28l252 -610q7 -17 15.5 -45.5t13.5 -48.5t5 -21q0 1 6 22.5t14.5 45.5t20.5 47l259 616q1 3 3.5 7.5t10.5 9.5t18 5h196q28 0 30 -52q48 -1230 48 -1231q0 -22 -27 -22h-138q-16 0 -22 6.5t-6 21.5l-16 1092h-5 q-4 -30 -12 -49q-44 -111 -96 -230t-124 -278.5t-102 -228.5q-9 -21 -32 -21h-56q-25 0 -34 21l-227 527q-4 9 -27.5 61.5t-33.5 76t-22.5 60.5t-15.5 61h-3l-32 -1092q-1 -15 -6 -21.5t-21 -6.5h-139q-26 0 -26 27z" />
<glyph unicode="N" horiz-adv-x="1330" d="M68 1211v75q0 19 20 19h298q22 0 32 -19l461 -805q32 -57 66 -123.5t37 -78.5h5v996q0 30 28 30h136q26 0 26 -29v-1243q0 -15 -5.5 -22.5t-11.5 -9t-17 -1.5h-139q-34 0 -53 34q-261 447 -449 785q-97 176 -107 212h-5v-1003q0 -14 -5 -21t-20 -7h-139q-15 0 -20 6.5 t-5 21.5v1126q-19 6 -57.5 18t-58.5 18q-17 4 -17 21z" />
<glyph unicode="O" horiz-adv-x="1246" d="M85 662q0 149 30 267.5t93 209.5t168.5 140.5t247.5 49.5q141 0 246.5 -49.5t168 -140.5t92.5 -210t30 -267q0 -119 -17 -217.5t-46 -168.5t-71 -123.5t-87.5 -86.5t-100 -54t-104.5 -29t-104 -8h-16q-54 0 -104 8t-104.5 29t-100 54t-87.5 86.5t-71 123.5t-46 168.5 t-17 217.5zM284 660q0 -134 21 -233.5t53 -155.5t79.5 -90t90.5 -44t95 -10q36 0 67.5 5t67 19.5t64 38.5t56 65t45.5 95.5t29 133.5t11 176q0 518 -341 518q-338 0 -338 -518z" />
<glyph unicode="P" horiz-adv-x="1051" d="M68 1210v75q0 22 20 22h62q63 0 197 1.5t208 1.5q222 0 339 -97.5t117 -289.5q0 -441 -546 -441h-79q0 -76 0.5 -227t0.5 -227q0 -15 -5 -21.5t-21 -6.5h-138q-15 0 -20 6.5t-5 22.5v1119l-113 41q-17 6 -17 21zM386 632h80q350 0 350 274q0 140 -76.5 197.5t-232.5 57.5 h-26.5t-25 -0.5t-22 -0.5t-19 -0.5t-15 -1t-9.5 -0.5h-3q0 -88 -0.5 -263t-0.5 -263z" />
<glyph unicode="Q" horiz-adv-x="1246" d="M85 662q0 149 30 267.5t93 209.5t168.5 140.5t247.5 49.5q141 0 246.5 -49.5t168 -140.5t92.5 -210t30 -267q0 -153 -27.5 -271.5t-77 -194.5t-107.5 -121.5t-130 -69.5q35 -8 96.5 -19.5t112.5 -22.5t95 -23q19 -5 19 -22l-33 -113q-4 -15 -20 -15q-7 0 -17 3 q-65 15 -374 98q-15 3 -15 28l3 59q-27 -3 -55 -3q-55 0 -105.5 7t-106.5 27t-103 51.5t-91 85t-74 123.5t-48 170.5t-18 222.5zM284 660q0 -134 21 -233.5t53 -155.5t79.5 -90t90.5 -44t95 -10q36 0 67.5 5t67 19.5t64 38.5t56 65t45.5 95.5t29 133.5t11 176 q0 518 -341 518q-338 0 -338 -518z" />
<glyph unicode="R" horiz-adv-x="1186" d="M68 1209v77q0 19 20 19h16q47 0 191 1.5t220 1.5q259 0 382.5 -90t123.5 -275q0 -110 -55 -195.5t-162 -129.5q-6 -2 -68 -23q107 -42 155 -170q63 -171 108.5 -226.5t118.5 -58.5q19 -1 25.5 -7.5t6.5 -23.5v-84q0 -13 -2 -20t-10.5 -12t-26.5 -5q-80 0 -141.5 25 t-103.5 73t-68.5 98t-51.5 121q-22 61 -45 103t-56.5 76.5t-80.5 51t-109 16.5h-68v-524q0 -15 -5 -21.5t-21 -6.5h-138q-15 0 -20 6.5t-5 22.5v1118l-113 42q-17 6 -17 20zM387 693h132q142 0 222.5 65.5t80.5 179.5q0 66 -23 111.5t-65 68.5t-89 32.5t-108 9.5 q-100 0 -150 -1v-466z" />
<glyph unicode="S" horiz-adv-x="1042" d="M91 61l11 209q0 8 5.5 13.5t14.5 5.5h75q14 0 19 -18q10 -38 32 -112q120 -30 212 -30q46 0 88 7t81.5 23t68 41t45.5 64t17 88q0 62 -36 107.5t-93.5 74t-127 54t-139 56t-127 69t-93.5 104t-36 151.5q0 80 24.5 143t66 103.5t100.5 66.5t123 37t138 11q49 0 163.5 -14 t157.5 -34q18 -8 18 -24l-7 -205q0 -19 -20 -19h-75q-13 0 -19 17l-37 117q-86 16 -155 16q-278 0 -278 -206q0 -32 13.5 -59.5t32 -46.5t54.5 -39.5t63.5 -32.5t76.5 -31q75 -30 124 -52t100.5 -50.5t82 -57t56 -65.5t36.5 -82t11 -100q0 -100 -34.5 -175t-97.5 -120 t-146 -67t-187 -22q-122 0 -222.5 17.5t-158.5 40.5q-21 8 -21 26z" />
<glyph unicode="T" horiz-adv-x="1016" d="M16 1034v248q0 10 6.5 16.5t16.5 6.5h942q19 0 19 -23v-248q0 -17 -19 -17h-75q-14 0 -19 16q-6 23 -18.5 65t-15.5 53h-248v-1008l120 -28q15 -4 19.5 -9.5t4.5 -18.5v-63q0 -14 -5.5 -19t-21.5 -5h-424q-16 0 -21.5 5t-5.5 19v63q0 14 4.5 19t20.5 9l119 28v1008h-248 q-5 -19 -16.5 -58.5t-16.5 -59.5q-5 -16 -19 -16h-75q-9 0 -16.5 5t-7.5 12z" />
<glyph unicode="U" horiz-adv-x="1270" d="M46 1211v75q0 20 21 20h271q31 0 31 -33v-798q0 -160 76 -250t211 -90q136 0 215 85.5t79 244.5v812q0 15 5.5 22t20.5 7h138q26 0 26 -29v-792q0 -240 -130.5 -375t-354.5 -135q-223 0 -349.5 133.5t-126.5 378.5v667l-114 36q-19 6 -19 21z" />
<glyph unicode="V" horiz-adv-x="1208" d="M15 1211v73q0 9 6 15t16 6h254q27 0 35 -26l304 -1017q6 -19 19 -83q180 496 325 1098q7 28 36 28h151q9 0 17.5 -6.5t8.5 -17.5q0 -5 -2 -13q-69 -295 -192 -654.5t-237 -589.5q-12 -24 -35 -24h-162q-14 0 -22 6t-11.5 14.5t-11.5 32.5q-136 393 -367 1101 q-19 5 -56.5 17.5t-56.5 18.5t-19 21z" />
<glyph unicode="W" horiz-adv-x="1812" d="M15 1211v75q0 19 22 19h256q22 0 30 -26l275 -1030q2 -9 6.5 -29.5t8.5 -41.5q161 542 265 930l-35 147q-8 30 -8 36q0 14 25 14h125q24 0 29 -21l238 -1052q2 -7 4 -21t4 -23l1 -10q151 409 317 1099q7 28 36 28h152q10 0 17.5 -7t7.5 -18q0 -4 -2 -12 q-71 -301 -189.5 -658.5t-229.5 -585.5q-12 -24 -36 -24h-164q-29 0 -34 25q-20 87 -84.5 356t-99.5 421q-23 -118 -89 -366t-133 -412q-10 -24 -35 -24h-171q-11 0 -22 7.5t-14 17.5q-60 195 -173 571.5t-168 557.5q-19 5 -56.5 17.5t-56.5 18.5t-19 21z" />
<glyph unicode="X" horiz-adv-x="1224" d="M42 1217v69q0 19 20 19h247q27 0 40 -24q88 -145 171.5 -289.5t101.5 -173.5l20 -32l12 21q50 84 147 242.5t141 232.5q13 23 41 23h163q22 0 22 -15q0 -8 -8 -19l-409 -626q44 -67 182 -270.5t232 -345.5q6 -9 6 -16q0 -13 -23 -13h-175q-26 0 -38 20l-270 429 q-14 22 -26 44h-2q0 -1 -25 -43q-115 -192 -175 -267l-37 -45q-63 -76 -134 -109.5t-166 -33.5q-32 0 -32 24l9 121l2 6t2.5 4.5t4.5 3.5t5 2.5t6.5 1.5t6 1.5t7 1.5t6.5 1q34 6 70.5 31t65.5 53.5t67.5 79t61 84t61.5 93.5q2 3 7.5 11.5t24.5 38.5t49 77 q-62 99 -180.5 282.5t-152.5 236.5l-129 41q-20 7 -20 27z" />
<glyph unicode="Y" horiz-adv-x="1102" d="M23 1211v75q0 19 20 19h252q9 0 18.5 -7.5t11.5 -20.5q13 -90 57.5 -320t70.5 -299q30 -84 147 -84q14 0 95 3q81 289 174 705q8 23 30 23h153q28 0 28 -16q-1 -7 -8 -36q-161 -637 -308 -1027q-49 -132 -131.5 -188t-231.5 -56q-124 0 -177 20q-12 5 -12 21l21 111 q3 17 20 17q1 0 20 -3t49 -6t57 -3q111 0 164.5 54t94.5 186l14 46q-14 0 -43 -0.5t-44 -0.5q-116 0 -177.5 34t-93.5 110q-20 47 -43.5 138t-55.5 233t-51 218l-105 30q-16 4 -16 24z" />
<glyph unicode="Z" horiz-adv-x="1053" d="M69 29v99q0 16 11 34l666 989h-513l-39 -118q-5 -16 -19 -16h-73q-19 0 -19 17l-6 246q0 9 5.5 17t16.5 8h836q10 0 20 -8t10 -20v-97q0 -23 -13 -40l-668 -986h421q65 0 100.5 31t40.5 98q0 7 5 15.5t17 8.5h124q17 0 17 -21q-4 -86 -24 -142.5t-58 -88t-86 -43.5 t-118 -12h-622q-32 0 -32 29z" />
<glyph unicode="[" horiz-adv-x="606" d="M157 -254v1836q0 21 6 28.5t26 7.5h358q16 0 23.5 -4.5t7.5 -21.5v-89q0 -16 -6.5 -21.5t-22.5 -5.5h-216v-1623h216q17 0 23 -5.5t6 -22.5v-88q0 -11 -4.5 -17t-10 -7.5t-16.5 -1.5h-358q-20 0 -26 7.5t-6 27.5z" />
<glyph unicode="\" horiz-adv-x="772" d="M-5 1606q0 12 13 12h130q17 0 22 -16l590 -1864q3 -9 3 -13q0 -14 -19 -14h-123q-13 0 -17 3t-8 14q-87 278 -285.5 904t-303.5 961q-2 10 -2 13z" />
<glyph unicode="]" horiz-adv-x="607" d="M29 -175q0 17 6 22.5t22 5.5h217v1623h-217q-15 0 -21.5 5.5t-6.5 21.5v89q0 17 7 21.5t23 4.5h359q20 0 26.5 -8t6.5 -28v-1836q0 -20 -6.5 -27.5t-26.5 -7.5h-359q-16 0 -23 4.5t-7 21.5v88z" />
<glyph unicode="^" horiz-adv-x="848" d="M85 912q0 5 2 9q100 208 226 462q6 11 24 11h174q18 0 24 -11l227 -462q3 -6 3 -10q0 -11 -11 -11h-141q-16 0 -22 12l-167 343l-167 -343q-6 -12 -23 -12h-140q-9 0 -9 12z" />
<glyph unicode="_" horiz-adv-x="982" d="M10 -154q0 18 25 18h913q24 0 24 -17v-109q0 -18 -23 -18h-913q-26 0 -26 19v107z" />
<glyph unicode="`" horiz-adv-x="548" d="M82 1341q0 13 22 13h155q24 0 36 -5t30 -27l140 -179q11 -15 11 -23q0 -11 -18 -11h-114q-24 0 -42 18l-188 171q-32 30 -32 43z" />
<glyph unicode="a" horiz-adv-x="963" d="M68 253q0 57 15.5 102t40 75.5t63 53t77 35t90 19.5t93 9t94.5 2h85v74q0 107 -52.5 159.5t-162.5 52.5q-89 0 -220 -55q-1 0 -5.5 -2t-8.5 -3t-8 -1q-12 0 -13 8l-19 91l-1 8q0 11 25 26q44 27 133.5 51t156.5 25h7q242 0 316 -183q30 -77 30 -245v-435q4 -1 34.5 -10.5 t66.5 -19.5q14 -5 14 -17v-56q0 -15 -18 -16l-230 -15q-14 0 -18 19l-15 114q-126 -144 -289 -144q-127 0 -204 73.5t-77 204.5zM248 266q0 -68 46 -106t114 -38q56 0 116 29.5t102 81.5v189h-81q-43 0 -73.5 -1.5t-68 -6.5t-62.5 -15.5t-48 -27t-34 -43.5t-11 -62z" />
<glyph unicode="b" horiz-adv-x="1124" d="M48 1340v66q0 19 22 21l265 22q10 0 16.5 -7t6.5 -19v-435q0 -84 -1 -127q148 121 298 121q87 0 154.5 -26.5t110 -71t69.5 -108.5t38 -132t11 -148q0 -245 -129 -383t-340 -138q-175 0 -394 73v1245l-109 29q-18 5 -18 18zM358 151q93 -27 188 -27q142 0 224 93.5 t82 282.5q0 67 -12.5 124.5t-40 108t-79.5 80t-123 29.5q-112 0 -239 -120v-571z" />
<glyph unicode="c" horiz-adv-x="915" d="M86 482q0 224 125.5 362t338.5 138q58 0 146 -14.5t125 -35.5q18 -10 18 -27l-13 -189q-1 -20 -18 -20h-58q-4 0 -11 4.5t-8 11.5q-3 14 -29 110q-69 16 -148 16q-128 0 -202 -97t-74 -258q0 -163 77 -261t222 -98q113 0 227 37q14 4 20 4q13 0 16 -18l16 -104 q0 -11 -12 -15q-36 -18 -123.5 -35t-153.5 -17q-235 0 -358 131.5t-123 374.5z" />
<glyph unicode="d" horiz-adv-x="1121" d="M86 478q0 243 128.5 374.5t341.5 131.5q86 0 211 -27q-1 25 -1 77v259l-109 29q-17 5 -17 18v66q0 19 22 21l265 22q22 0 22 -26v-1297l101 -24q17 -4 17 -19v-58q0 -19 -21 -21l-236 -14q-19 0 -23 19l-16 90q-148 -122 -302 -122q-87 0 -154.5 28t-110 75t-70 113 t-38 135.5t-10.5 149.5zM272 470q0 -66 11 -122.5t37.5 -111t79 -86.5t126.5 -32q115 0 241 119v571q-98 27 -188 27q-144 0 -225.5 -87t-81.5 -274v-4z" />
<glyph unicode="e" horiz-adv-x="987" d="M86 482q0 224 114.5 364t316.5 140q200 0 294 -121.5t94 -383.5q0 -31 -23 -31h-612q8 -167 91.5 -246.5t240.5 -79.5q109 0 236 47q9 3 13 3q16 0 18 -21q2 -19 8.5 -53.5t7.5 -43.5q0 -12 -15 -18q-146 -63 -305 -63q-226 0 -352.5 133t-126.5 374zM275 591h449 q-14 251 -203 251q-103 0 -166.5 -69t-79.5 -182z" />
<glyph unicode="f" horiz-adv-x="664" d="M34 836v102q0 20 23 20h141v160q0 184 67 260.5t224 76.5q66 0 160 -32q10 -4 10 -12q0 -1 -12 -114q-2 -8 -8 -8q-5 0 -13 2q-64 14 -106 14q-67 0 -103 -34.5t-36 -138.5v-174h234q24 0 24 -20v-102q0 -9 -7.5 -15t-16.5 -6h-234v-792q0 -9 -6 -16t-16 -7h-141 q-20 0 -20 23v792h-141q-9 0 -16 6t-7 15z" />
<glyph unicode="g" horiz-adv-x="1052" d="M86 477q0 243 128 375t340 132q141 0 353 -64q31 -9 31 -35v-776q0 -75 -1.5 -120t-10.5 -112t-25.5 -108t-48.5 -88.5t-77.5 -73.5t-115 -44t-159.5 -18q-67 0 -168.5 14t-140.5 34q-15 7 -15 21l8 113q2 16 19 16q8 0 33 -9q90 -35 229 -35q60 0 106.5 10t77.5 25 t52.5 43t33 53t17.5 67t7 73t1 82v36q-143 -111 -291 -111q-107 0 -184.5 41.5t-119.5 114.5t-60.5 157.5t-18.5 186.5zM272 473q0 -66 11 -123t37.5 -112t79 -87.5t126.5 -32.5q116 0 234 113v573l-69 16q-63 11 -110 11q-309 0 -309 -358z" />
<glyph unicode="h" horiz-adv-x="1135" d="M48 1342v64q0 19 22 21l265 22q10 0 16.5 -7t6.5 -19v-468q0 -16 -0.5 -57t-0.5 -58q171 143 340 143q127 0 199 -73t72 -203v-577l107 -28q16 -4 16 -22v-54q0 -19 -22 -21q-44 -3 -131.5 -7t-131.5 -7q-14 0 -18 11.5t-4 50.5v598q0 180 -160 180q-70 0 -140.5 -37 t-125.5 -96v-675q0 -23 -20 -23h-142q-21 0 -21 23v1270l-108 28q-19 5 -19 21z" />
<glyph unicode="i" horiz-adv-x="549" d="M51 865v66q0 19 22 21l268 23q10 0 17 -7.5t7 -19.5v-811l118 -26q18 -5 18 -19v-66q0 -20 -23 -22q-201 -13 -273 -19q-10 0 -17 6.5t-7 16.5v811l-112 28q-18 4 -18 18zM143 1222q0 48 30 77.5t80 29.5t80.5 -29.5t30.5 -77.5q0 -47 -30.5 -77t-80.5 -30t-80 30t-30 77 z" />
<glyph unicode="j" horiz-adv-x="551" d="M13 -332q0 15 6 19.5t19 4.5q96 0 141 51.5t45 162.5v913l-108 28q-18 5 -18 18v66q0 19 22 21l265 23q10 0 17 -7.5t7 -19.5v-1041q0 -84 -15 -144.5t-53.5 -111.5t-112 -78t-182.5 -29q-28 0 -29 19q-4 103 -4 105zM187 1233q0 48 30.5 77.5t80.5 29.5t80.5 -29.5 t30.5 -77.5t-30.5 -78t-80.5 -30t-80.5 30t-30.5 78z" />
<glyph unicode="k" horiz-adv-x="1043" d="M48 1342v64q0 19 22 21l265 22q10 0 16.5 -7t6.5 -19v-709q0 -50 -2 -112h89q29 0 53 12t43.5 37t31.5 46t29 56q27 54 44 83t44.5 59.5t60 44t81 22.5t116.5 9q26 0 26 -24v-105q0 -14 -6.5 -18.5t-21.5 -4.5h-13q-64 -1 -99.5 -24.5t-60.5 -67.5l-28 -49 q-59 -101 -120 -131q56 -28 86 -76.5t64 -145.5q16 -45 29 -72t35 -54t53.5 -40.5t76.5 -16.5q15 -1 20 -7t5 -20v-101q0 -14 -8 -19t-32 -5q-128 0 -203.5 52.5t-111.5 154.5q-20 58 -31.5 88t-30.5 69.5t-36 58t-41.5 32t-54.5 13.5h-87v-435q0 -23 -20 -23h-142 q-22 0 -22 23v1270l-107 28q-19 5 -19 21z" />
<glyph unicode="l" horiz-adv-x="603" d="M43 1340v67q0 18 23 20l264 23q10 0 17 -7.5t7 -18.5v-1129q0 -169 162 -169q2 0 53 3q13 0 14 -13l10 -110q0 -15 -13 -18q-64 -12 -144 -12q-143 0 -204.5 81t-61.5 237v1000l-109 26q-18 4 -18 20z" />
<glyph unicode="m" horiz-adv-x="1671" d="M48 866v67q0 19 22 21l242 19q21 0 24 -26l14 -116q179 153 323 153q187 0 243 -158q175 157 331 157q123 0 190 -73.5t67 -202.5v-577l106 -27q16 -4 16 -19v-58q0 -19 -20 -21q-31 -2 -124.5 -6.5t-143.5 -7.5q-14 0 -17 13v645q0 82 -35 133.5t-106 51.5 q-119 0 -247 -135v-675q0 -24 -21 -24h-142q-20 0 -20 24v625q0 184 -153 184q-111 0 -238 -133v-677q0 -23 -20 -23h-142q-21 0 -21 23v795l-109 27q-19 4 -19 21z" />
<glyph unicode="n" horiz-adv-x="1132" d="M48 866v67q0 19 22 21l242 19q21 0 24 -26l14 -116q90 76 172.5 114t173.5 38q127 0 198 -72t71 -202v-579l106 -27q16 -4 16 -19v-58q0 -19 -20 -21q-44 -3 -132 -7t-132 -7q-9 0 -15.5 7t-6.5 14v642q0 181 -158 181q-69 0 -139 -38t-126 -98v-676q0 -23 -21 -23h-141 q-22 0 -22 23v795l-107 27q-19 5 -19 21z" />
<glyph unicode="o" horiz-adv-x="1071" d="M86 485q0 253 121.5 375.5t324.5 122.5q95 0 175.5 -29t143.5 -87.5t98.5 -156.5t35.5 -227q0 -109 -24 -196t-64.5 -144.5t-98.5 -96t-123 -55t-140 -16.5q-93 0 -171 28t-142 86t-100 159.5t-36 236.5zM275 480q0 -191 71 -276.5t191 -85.5q118 0 187 84.5t69 275.5 q0 360 -264 360q-128 0 -191 -85t-63 -273z" />
<glyph unicode="p" horiz-adv-x="1124" d="M48 866v67q0 19 22 21l241 19q22 0 25 -23l14 -92q149 124 304 124q108 0 185.5 -39.5t119.5 -110t60.5 -153.5t18.5 -184q0 -245 -130 -383t-341 -138q-69 0 -212 28q0 -14 1 -46.5t1 -54.5v-308q0 -22 -20 -22h-142q-21 0 -21 22v1225l-107 27q-19 5 -19 21zM358 150 q92 -27 187 -27q142 0 224 93.5t82 282.5q0 67 -12 124.5t-39.5 108.5t-79.5 80.5t-124 29.5q-114 0 -238 -119v-573z" />
<glyph unicode="q" horiz-adv-x="1073" d="M86 477q0 243 128.5 375t340.5 132q114 0 231.5 -28t161.5 -59v-1303q0 -22 -20 -22h-144q-19 0 -19 22v504q-149 -121 -296 -121q-87 0 -154.5 28t-110 74.5t-70 112.5t-38 135.5t-10.5 149.5zM272 473q0 -53 7 -101t25 -95.5t46 -81.5t73.5 -55.5t103.5 -21.5 q112 0 238 119v571q-97 27 -186 27q-144 0 -225.5 -87.5t-81.5 -274.5z" />
<glyph unicode="r" horiz-adv-x="704" d="M48 864v68q0 19 22 21l243 20q20 0 23 -26l18 -125q36 73 98 116.5t138 43.5q49 0 89 -10q15 -4 15 -17l-21 -149q-1 -12 -11 -12q-9 0 -48 7t-59 7q-73 0 -120.5 -51t-70.5 -127v-607q0 -9 -6 -16t-15 -7h-142q-22 0 -22 23v794l-113 27q-18 4 -18 20z" />
<glyph unicode="s" horiz-adv-x="905" d="M82 55l14 199q1 18 20 18h60q15 0 18 -14l23 -111q95 -30 224 -30q96 0 153 38t57 108q0 56 -51 83.5t-177 56.5q-75 17 -125 35.5t-97.5 51t-71 84t-23.5 122.5q0 78 29.5 135.5t82 89.5t115 47t137.5 15q176 0 304 -53q16 -7 16 -23l-14 -182q-2 -18 -18 -18h-59 q-12 0 -17 16l-28 105q-87 21 -165 21q-100 0 -155.5 -33.5t-55.5 -98.5q0 -41 30.5 -69.5t79 -45.5t107 -32.5t117 -37t107 -51t79 -82.5t30.5 -124q0 -80 -30.5 -140t-83.5 -94t-116.5 -50t-138.5 -16q-109 0 -207.5 20t-154.5 42q-15 6 -15 18z" />
<glyph unicode="t" horiz-adv-x="694" d="M26 836v102q0 20 23 20h151v194q0 24 20 24h142q10 0 15.5 -7.5t5.5 -16.5v-194h232q24 0 24 -20v-102q0 -9 -8 -15t-16 -6h-232v-539q0 -150 143 -150q24 0 86 6q18 0 19 -15l11 -115q0 -8 -11 -12q-50 -15 -151 -15q-142 0 -211 74.5t-69 226.5v539h-151q-9 0 -16 6 t-7 15z" />
<glyph unicode="u" horiz-adv-x="1122" d="M43 865v66q0 19 22 21l264 22q21 0 23 -26v-646q0 -180 158 -180q135 0 263 132v682q0 22 21 22h142q20 0 20 -22v-809l105 -25q16 -4 16 -19v-58q0 -19 -20 -21q-22 -1 -104.5 -6.5t-124.5 -6.5q-22 0 -26 19l-20 113q-91 -75 -173 -112t-174 -37q-124 0 -195 74.5 t-71 201.5v567l-108 27q-18 5 -18 21z" />
<glyph unicode="v" horiz-adv-x="1002" d="M15 926q0 17 23 21q145 15 253 24q20 0 25 -21l46 -176q10 -36 57 -214.5t74 -277.5q30 -116 39 -138q158 370 248 783q5 31 29 31h150q23 0 23 -21q0 -9 -10 -53q-47 -197 -144 -447.5t-193 -413.5q-14 -23 -41 -23h-143q-25 0 -35 22q-29 60 -66 181q-115 343 -197 611 l-118 28q-18 4 -18 19z" />
<glyph unicode="w" horiz-adv-x="1499" d="M15 861v65q0 17 23 21q145 15 253 24q20 0 25 -21l46 -176q103 -391 151 -624q3 9 42 138q120 386 157 520q-9 37 -29 111l-6 25q0 14 25 14h138q19 0 24 -20q74 -332 159 -667q4 -18 24 -121q159 383 233 777q5 31 27 31h151q22 0 22 -21q0 -13 -10 -53 q-61 -275 -214 -627q-67 -154 -114 -234q-13 -23 -40 -23h-118q-31 0 -43 38q-24 75 -47.5 156t-51.5 181.5t-41 146.5l-18 61q-2 -19 -15 -62q-118 -364 -165 -498q-8 -23 -41 -23h-116q-30 0 -43 36q-54 148 -143.5 437t-106.5 341l-118 28q-20 4 -20 19z" />
<glyph unicode="x" horiz-adv-x="1001" d="M44 10l7 108q1 17 27 21q45 7 82.5 34.5t82.5 75.5q92 98 175 226l-232 346l-109 25q-18 4 -18 20v66q0 20 22 20l212 20q19 0 32 -21q50 -80 118 -185t92 -144l211 320q12 17 30 17h172q20 0 20 -12q0 -4 -5 -14q-205 -276 -331 -450l312 -455q4 -7 4 -14q0 -14 -14 -14 h-171q-22 0 -34 18l-206 324l-58 -83q-27 -38 -37 -51.5t-35.5 -47.5t-40.5 -47.5t-41.5 -38.5t-49 -36t-52.5 -24.5t-63.5 -18.5t-70.5 -5q-31 0 -31 20z" />
<glyph unicode="y" horiz-adv-x="1075" d="M18 859v65q0 19 24 22l254 25q21 0 26 -25q7 -33 18 -93t16 -84q69 -341 121 -501q9 -27 15 -42.5t17 -35t25.5 -28.5t33.5 -9h44q134 323 234 779q5 26 28 26h157q24 0 24 -15q0 -6 -3 -18l-12 -43q-46 -177 -123.5 -394t-132.5 -346l-54 -128q-50 -117 -94 -195.5 t-101 -144.5t-127.5 -97.5t-157.5 -31.5q-81 0 -111 11q-12 4 -12 18l13 110q1 16 17 16q9 -1 26 -1q150 0 219 70q65 66 149 248h-32q-57 0 -94 23t-64 69q-44 76 -101 278q-35 127 -109 427l-114 26q-19 4 -19 19z" />
<glyph unicode="z" horiz-adv-x="902" d="M75 930q0 17 7 22.5t22 5.5h679q11 0 18.5 -6.5t7.5 -16.5v-90q0 -39 -34 -82l-466 -579q-18 -22 -23 -30q0 -3 8 -3h291q66 0 94 28t30 90q0 24 21 24h114q18 0 18 -24q-3 -80 -21.5 -133t-56 -82.5t-85 -41.5t-116.5 -12h-479q-11 0 -17.5 6.5t-6.5 15.5v86 q0 15 1.5 26t6 21t7 14t10.5 14.5t10 12.5l487 610h-385l-34 -107q-4 -16 -17 -16h-58q-18 0 -20 24z" />
<glyph unicode="{" horiz-adv-x="832" d="M75 595v126q0 12 7 16.5t22 6.5q59 4 112.5 31t73.5 61q26 47 26 139v357q0 157 76 217t271 60h92q25 0 25 -25v-92q0 -10 -1 -14t-8 -7.5t-21 -3.5h-44q-46 0 -72.5 -1.5t-54 -8.5t-41 -20t-25.5 -36t-16 -56.5t-4 -82.5v-318q0 -107 -47.5 -179t-162.5 -103v-8 q53 -14 91.5 -38t61 -52t36 -66.5t17.5 -74t4 -80.5v-264q0 -55 3 -91t13.5 -62t23 -39.5t39.5 -21.5t53.5 -9.5t74.5 -1.5h51q21 0 25 -4.5t4 -20.5v-93q0 -25 -25 -25h-92q-198 0 -272.5 60.5t-74.5 217.5v352q0 92 -26 139q-19 34 -71 59t-115 32q-29 3 -29 24z" />
<glyph unicode="|" horiz-adv-x="460" d="M156 -263v1854q0 27 20 27h108q22 0 22 -27v-1854q0 -27 -22 -27h-108q-20 0 -20 27z" />
<glyph unicode="}" horiz-adv-x="832" d="M52 -172q0 15 5.5 20t26.5 5h43q46 0 72.5 2t54 8.5t41 19.5t25.5 36t16 56t4 81v319q0 107 47.5 179t161.5 103v7q-114 31 -161.5 103.5t-47.5 179.5v318q0 48 -4 81t-15.5 55.5t-24.5 35t-40 19.5t-53 8.5t-71 1.5h-47q-21 0 -27 5.5t-6 19.5v93q0 25 26 25h92 q196 0 271 -60t75 -218v-353q0 -90 27 -139q20 -34 72.5 -60t112.5 -31q30 -3 30 -24v-126q0 -21 -30 -24q-62 -5 -113.5 -31t-71.5 -60q-27 -49 -27 -139v-356q0 -156 -75.5 -216.5t-270.5 -60.5h-92q-26 0 -26 25v92z" />
<glyph unicode="~" horiz-adv-x="982" d="M68 465q0 6 4 13q94 175 269 175q48 0 88.5 -16t100.5 -50q74 -44 118 -44q58 0 148 106q8 9 14 9q3 0 15 -6l82 -43q7 -3 7 -13q0 -7 -3 -13q-43 -90 -116.5 -142t-168.5 -52q-88 0 -199 70q-64 41 -105 41q-62 0 -124 -78l-16 -20q-4 -4 -9 -4q-2 0 -6 2l-92 54 q-7 4 -7 11z" />
<glyph unicode="&#xa1;" horiz-adv-x="513" d="M129 839q0 55 36 90.5t91 35.5t91.5 -35.5t36.5 -90.5t-37 -92.5t-91 -37.5t-90.5 37.5t-36.5 92.5zM147 -325q2 41 7 176.5t11.5 307.5t13.5 379q0 21 21 21h119q17 0 19 -22l32 -870q0 -22 -25 -22h-172q-16 0 -21 4.5t-5 18.5v7z" />
<glyph unicode="&#xa2;" horiz-adv-x="936" d="M86 490q0 207 110.5 339.5t301.5 150.5v134q0 22 19 22h76q21 0 21 -22v-133q119 -8 245 -47q12 -3 12 -18l-12 -190q-1 -21 -18 -21h-59q-15 0 -18 16l-27 103q-53 11 -123 15v-704q93 4 185 28q39 11 46 11q11 0 14 -18l15 -103q0 -11 -11 -16q-36 -14 -106 -28.5 t-143 -18.5v-134q0 -22 -24 -22h-69q-23 0 -23 22v136q-200 19 -306 148t-106 350zM276 493q0 -134 58 -228.5t164 -120.5v690q-104 -22 -163 -112.5t-59 -228.5z" />
<glyph unicode="&#xa3;" horiz-adv-x="1002" d="M75 26v84q0 6 2.5 12t5 9.5t7 7.5t4.5 5q33 35 60 113.5t37 184.5h-94q-22 0 -22 23v84q0 22 22 22h102q1 23 5 140h-106q-22 0 -22 21v85q0 23 22 23h110q7 127 36 210q48 137 152 206.5t242 69.5q51 0 124.5 -15t106.5 -28q23 -10 26 -16t3 -15l-7 -201q0 -22 -22 -22 h-74q-16 0 -22 19l-34 116q-45 13 -91 13q-246 0 -262 -337h325q25 0 25 -23v-85q0 -21 -22 -21h-329q0 -33 -0.5 -80t-0.5 -60h331q22 0 22 -22v-84q0 -23 -22 -23h-337q-11 -165 -86 -292h378q66 0 99 33t34 104q0 21 20 21h120q18 0 18 -20q0 -84 -19.5 -142t-58.5 -89 t-87 -44t-114 -13h-577q-30 0 -30 26z" />
<glyph unicode="&#xa4;" horiz-adv-x="1123" d="M65 1092q0 5 6 11l82 85q6 6 12 6q8 0 18 -10l134 -135q96 70 242 70q142 0 242 -76l143 145q7 7 13 7t12 -6l85 -85q5 -7 5 -11q0 -7 -6 -13l-152 -152q50 -97 50 -238q0 -166 -61 -267l151 -153q7 -7 7 -12q0 -4 -5 -9l-79 -83q-9 -9 -19 -9q-7 0 -13 6l-148 149 q-91 -58 -224 -58q-135 0 -224 54l-150 -148q-4 -4 -7 -4t-6 3l-95 92q-3 3 -3 7q0 5 7 12l147 148q-62 100 -62 272q0 146 51 243q-22 21 -46 45.5t-54 54.5l-46 46q-7 7 -7 13zM339 689q0 -297 218 -297q101 0 161 75t60 223t-58.5 218t-163.5 70q-217 0 -217 -289z" />
<glyph unicode="&#xa5;" horiz-adv-x="1211" d="M41 1211v73q0 21 21 21h248q5 0 9.5 -1t8.5 -4.5t6.5 -5.5t5.5 -8t4.5 -8.5t5 -10t4.5 -9.5q184 -373 269 -585l22 -57q4 0 19 42q158 390 282 621q13 26 36 26h152q32 0 32 -20q0 -8 -6 -20q-263 -510 -308 -601h199q9 0 15.5 -6t6.5 -15v-89q0 -19 -20 -19h-263 l-53 -94v-56h317q19 0 19 -20v-90q0 -19 -19 -19h-317v-228q0 -15 -5 -21.5t-20 -6.5h-140q-15 0 -20 6.5t-5 21.5v228h-308q-21 0 -21 19v90q0 20 21 20h307v56q-7 15 -25 46.5t-25 47.5h-258q-20 0 -20 19v89q0 21 20 21h196q-93 195 -251 489l-123 37q-19 6 -19 21z" />
<glyph unicode="&#xa6;" horiz-adv-x="460" d="M156 -263v707q0 27 20 27h108q22 0 22 -27v-707q0 -27 -22 -27h-108q-20 0 -20 27zM156 884v707q0 27 20 27h108q22 0 22 -27v-707q0 -28 -22 -28h-108q-20 0 -20 28z" />
<glyph unicode="&#xa7;" horiz-adv-x="908" d="M109 623q0 127 119 223q-101 82 -101 204q0 70 29.5 125t80 88t113.5 49.5t135 16.5q117 0 266 -40q15 -3 15 -19l-12 -173q0 -6 -4.5 -11t-11.5 -5h-55q-13 0 -17 13l-26 94q-68 14 -134 14q-55 0 -101 -11.5t-81 -45t-35 -85.5q0 -61 49.5 -100t141.5 -74 q40 -15 63.5 -24.5t62 -28t61.5 -34.5t51.5 -41.5t44 -53t26.5 -64t11 -78.5q0 -140 -117 -231q101 -87 101 -223q0 -94 -51 -158t-129 -91t-178 -27q-125 0 -279 52q-28 9 -28 31q8 111 11 172q0 15 14 15h64q12 0 15 -13l24 -94q89 -29 152 -29q54 0 101.5 13t83.5 48.5 t36 89.5q0 35 -17.5 63t-47 48.5t-68 39t-80.5 36.5t-84.5 37.5t-81 45.5t-68 57.5t-47 77.5t-17.5 101zM269 628q1 -32 17.5 -59t40 -47t66 -40t78 -33t92.5 -32q75 65 75 136q0 30 -13 55.5t-30 43t-50.5 37t-57 30t-68 29.5t-66.5 29q-80 -64 -84 -149z" />
<glyph unicode="&#xa8;" horiz-adv-x="719" d="M90 1201q0 43 27 69t71 26t71.5 -26t27.5 -69q0 -42 -27.5 -68.5t-71.5 -26.5t-71 26.5t-27 68.5zM433 1201q0 43 27 69t72 26q44 0 71 -26t27 -69q0 -42 -27.5 -68.5t-70.5 -26.5q-45 0 -72 26.5t-27 68.5z" />
<glyph unicode="&#xa9;" horiz-adv-x="1263" d="M84 500q0 233 158 388.5t391 155.5q153 0 278 -70.5t197 -195.5t72 -278q0 -154 -72 -279.5t-197.5 -195.5t-278.5 -70t-278.5 70t-197.5 195.5t-72 279.5zM199 500q0 -189 124.5 -315.5t309.5 -126.5q184 0 308.5 126.5t124.5 315.5q0 188 -124.5 314.5t-309.5 126.5 q-184 0 -308.5 -126.5t-124.5 -314.5zM358 508q0 139 80 226t208 87q33 0 83.5 -7.5t79.5 -18.5q20 -7 23 -17q1 -3 1 -7l-12 -125q-1 -13 -12 -13h-44q-9 0 -13 12l-21 67q-33 8 -71 8q-79 0 -126.5 -57.5t-47.5 -154.5q0 -99 46 -153t132 -54q61 0 142 27q8 2 10 2 q8 0 10 -13l11 -57q2 -12 2 -13q0 -6 -4 -9q-23 -17 -83.5 -28.5t-94.5 -11.5q-146 0 -222.5 81t-76.5 229z" />
<glyph unicode="&#xaa;" horiz-adv-x="623" d="M46 886q0 50 17.5 85.5t44 55.5t67.5 31t76 14t83 3q28 0 43 -1v32q0 111 -128 111q-56 0 -148 -34q-4 -2 -6 -2q-8 0 -8 10l4 84q1 19 66.5 36t111.5 17q112 0 176.5 -54t64.5 -166v-295l64 -18q8 -2 8 -11v-43q0 -11 -13 -12l-157 -8q-13 0 -15 13l-9 60 q-31 -39 -75 -60t-90 -21q-75 0 -126 45.5t-51 127.5zM178 895q0 -35 24 -54.5t58 -19.5q33 0 64.5 16t53.5 43q0 16 -0.5 50t-0.5 51h-18q-29 0 -47 -0.5t-46.5 -5t-45 -13t-29.5 -26t-13 -41.5z" />
<glyph unicode="&#xab;" horiz-adv-x="920" d="M90 415v133q0 24 10 35l278 295q6 6 12 6q5 0 14 -16l57 -93q3 -6 3 -10q0 -12 -9 -23q-22 -29 -62 -82t-73 -96.5t-63 -82.5l200 -263q8 -12 8 -18q0 -7 -3 -13l-56 -95q-8 -12 -16 -12q-6 0 -11 5l-281 296q-8 9 -8 34zM467 415v133q0 24 10 35l279 295q6 6 11 6 q3 0 6 -3t5 -7l2 -4l59 -95q3 -5 3 -11q0 -8 -9 -22l-198 -261q34 -43 99.5 -131t99.5 -132q8 -12 8 -19q0 -6 -3 -12l-61 -98q-5 -9 -11 -9t-10 5l-281 296q-9 11 -9 34z" />
<glyph unicode="&#xac;" horiz-adv-x="1032" d="M90 662v119q0 18 19 18h807q16 0 16 -19v-444q0 -19 -18 -19h-134q-17 0 -17 18v308h-653q-20 0 -20 19z" />
<glyph unicode="&#xad;" horiz-adv-x="647" d="M96 485v135q0 17 18 17h418q11 0 14.5 -3.5t3.5 -12.5v-134q0 -18 -16 -18h-419q-19 0 -19 16z" />
<glyph unicode="&#xae;" horiz-adv-x="999" d="M89 916q0 173 119 292t292 119t291.5 -119t118.5 -292t-118.5 -291.5t-291.5 -118.5t-292 118.5t-119 291.5zM176 916q0 -139 93.5 -233t230.5 -94t230 94t93 233t-93 233.5t-230 94.5t-230.5 -94.5t-93.5 -233.5zM319 1094v36q0 11 9 11h167q70 0 119 -30t49 -98 q0 -78 -89 -116q30 -16 43 -49q21 -46 34 -60t38 -19q8 0 8 -7q0 -2 -10 -62q-1 -7 -10 -7q-55 4 -83 29t-47 73q-13 35 -34.5 55.5t-59.5 20.5h-12v-164q0 -11 -8 -11h-65q-9 0 -9 11v369l-32 8q-8 1 -8 10zM445 944h35q41 0 64 18t23 48q0 58 -82 58h-40v-124z" />
<glyph unicode="&#xaf;" horiz-adv-x="577" d="M90 1137v100q0 10 8.5 15t17.5 5h347q16 0 20.5 -4.5t4.5 -13.5v-104q0 -20 -26 -20h-344q-28 0 -28 22z" />
<glyph unicode="&#xb0;" horiz-adv-x="667" d="M42 1038q0 121 85.5 206.5t207.5 85.5q118 0 204.5 -85t86.5 -207q0 -120 -85 -204.5t-206 -84.5q-123 0 -208 83.5t-85 205.5zM181 1038q0 -68 43.5 -114t109.5 -46q65 0 108.5 46.5t43.5 113.5t-44.5 114.5t-107.5 47.5q-65 0 -109 -47.5t-44 -114.5z" />
<glyph unicode="&#xb1;" horiz-adv-x="921" d="M93 165v123q0 17 18 17h693q18 0 18 -17v-121q0 -19 -17 -19h-693q-19 0 -19 17zM93 722v118q0 18 18 18h264v265q0 19 16 19h134q18 0 18 -17v-267h267q11 0 14.5 -4t3.5 -13v-118q0 -18 -17 -18h-268v-274q0 -18 -19 -18h-131q-18 0 -18 17v275h-263q-19 0 -19 17z" />
<glyph unicode="&#xb2;" horiz-adv-x="708" d="M79 696q0 169 206 328q104 79 142.5 123t38.5 95q0 47 -37 73.5t-83 26.5t-81.5 -27t-48.5 -77q-2 -8 -5 -18q-2 -7 -9 -8q-4 0 -7 1l-104 29q-11 4 -11 11q0 4 2 14q22 92 90 150t176 58q109 0 186 -60.5t77 -166.5q0 -52 -14.5 -95t-45.5 -79.5t-61.5 -62.5t-80.5 -62 q-60 -44 -99.5 -82t-58.5 -82h259l17 59q3 10 7 13.5t14 3.5h53q13 0 17.5 -6.5t5.5 -21.5l6 -141q0 -11 -4 -16q-8 -13 -27 -13h-493q-27 0 -27 33z" />
<glyph unicode="&#xb3;" horiz-adv-x="659" d="M79 689q2 15 6.5 44.5t5.5 32.5q1 11 5 15t14 4l22 -3q56 -7 100 -7q103 0 156 46.5t53 104.5q0 102 -144 102q-15 0 -47.5 -1t-45.5 -1q-12 0 -20 8.5t-8 19.5t10 28l174 258h-182l-13 -41q-8 -24 -19 -24h-49q-17 0 -17 32v125q0 27 22 27h441q31 0 31 -25 q0 -13 -19 -39q-137 -200 -175 -253q87 -10 149.5 -61t62.5 -148q0 -120 -90 -202t-249 -82q-86 0 -157 19q-17 3 -17 21z" />
<glyph unicode="&#xb4;" horiz-adv-x="546" d="M77 1119q0 10 10 24l140 179q16 20 26.5 25.5t30.5 6.5h165q21 0 21 -13t-32 -43l-187 -171q-18 -18 -43 -18h-114q-17 0 -17 10z" />
<glyph unicode="&#xb5;" horiz-adv-x="1184" d="M49 865v65q0 19 23 21q88 7 264 23q10 0 16.5 -7.5t6.5 -19.5v-644q18 -76 75.5 -122t139.5 -46t147.5 55t94.5 137v608q0 23 21 23h142q20 0 20 -23v-618q0 -83 35 -129.5t98 -54.5q14 -2 14 -16l-20 -124q-1 -13 -18 -13q-91 0 -154.5 44.5t-85.5 120.5 q-103 -168 -290 -168q-140 0 -219 81v-88q0 -251 13 -336q1 -7 3 -17t4.5 -19t2.5 -10q0 -16 -21 -16h-139q-12 0 -20 13q-16 26 -21 106t-5 246v879l-108 28q-19 5 -19 21z" />
<glyph unicode="&#xb6;" horiz-adv-x="1350" d="M58 811q0 199 118 330.5t319 153.5q102 10 156 10h603q24 0 24 -21v-60q0 -20 -17 -24l-115 -28v-1520q0 -29 -27 -29h-128q-27 0 -27 29v1520h-164v-1520q0 -29 -27 -29h-130q-26 0 -26 29v654q-6 0 -22 -0.5t-24 -0.5q-82 0 -155.5 18t-139.5 57.5t-114 97t-76 143 t-28 190.5zM233 809q0 -179 99 -276.5t254 -97.5q21 0 31 1v735l-3 1h-8h-14q-172 0 -265.5 -100.5t-93.5 -262.5z" />
<glyph unicode="&#xb7;" horiz-adv-x="440" d="M92 559q0 54 37 91t91 37t91 -37t37 -91q0 -53 -37 -90t-91 -37t-91 37t-37 90z" />
<glyph unicode="&#xb8;" horiz-adv-x="520" d="M77 -409q0 7 24 81q5 14 15 14q2 0 17 -2.5t30.5 -4.5t25.5 -2q42 0 70.5 19t28.5 50q0 32 -27.5 50.5t-64.5 18.5q-18 0 -31 -1q-17 0 -17 9q0 1 3 10l57 198h125q-31 -109 -36 -130q71 -15 107 -52.5t36 -90.5q0 -88 -67 -138t-173 -50q-79 0 -115 11q-8 3 -8 10z" />
<glyph unicode="&#xb9;" horiz-adv-x="515" d="M61 1383q0 17 24 23l233 67q6 2 11 2q21 0 21 -35v-664l65 -11q18 -3 22 -7.5t4 -21.5v-53q0 -13 -4.5 -17t-18.5 -4h-285q-14 0 -18.5 4t-4.5 17v53q0 17 4 21.5t22 7.5l65 11v528q-76 -21 -121 -27q-15 0 -15 15z" />
<glyph unicode="&#xba;" horiz-adv-x="643" d="M43 1020q0 157 76 233t202 76q123 0 201 -77t78 -233q0 -161 -77.5 -236t-201.5 -75q-121 0 -199.5 76t-78.5 236zM184 1018q0 -101 40 -147.5t101 -46.5q60 0 97.5 45.5t37.5 146.5q0 195 -139 195q-70 0 -103.5 -45t-33.5 -148z" />
<glyph unicode="&#xbb;" horiz-adv-x="920" d="M77 198q0 9 9 20q33 44 99.5 131.5t99.5 131.5l-198 261q-9 14 -9 23q0 5 3 10l61 102q5 7 11 7q5 0 11 -6l278 -295q11 -13 11 -35v-133q0 -22 -10 -34l-280 -296q-4 -4 -9 -4q-8 0 -21 21l-53 85q-3 5 -3 11zM455 198q0 8 8 20q39 51 110.5 146t88.5 117l-197 261 q-10 12 -10 23q0 4 3 10q2 3 11.5 20t17 29.5l16.5 27.5t16 23.5t10 8.5q7 0 13 -6l277 -295q10 -11 10 -35v-133q0 -23 -9 -34l-279 -296q-5 -5 -11 -5t-11 8q-64 100 -64 110z" />
<glyph unicode="&#xbc;" horiz-adv-x="1544" d="M68 1227q0 15 31 24l225 64q8 2 10 2q22 0 22 -35v-662l67 -16q14 -3 18.5 -7.5t4.5 -16.5v-54q0 -14 -4.5 -18t-18.5 -4h-285q-14 0 -18.5 4t-4.5 18v54q0 12 5 16.5t19 7.5l67 16v526q-56 -16 -116 -25q-18 0 -19 19zM340 4q0 8 9 26q513 1045 617 1259q8 16 25 16h128 q19 0 19 -15l-8 -18l-618 -1268q-8 -15 -29 -15h-124q-19 0 -19 15zM907 201v59q0 15 19 55q101 207 229 462q8 20 34 20h100q22 0 22 -19q0 -6 -7 -20q-156 -316 -229 -462h157v135q0 26 22 26h104q23 0 23 -26v-135h59q25 0 25 -22v-74q0 -23 -25 -23h-59v-152 q0 -25 -23 -25h-104q-22 0 -22 25v152h-289q-18 0 -27 4.5t-9 19.5z" />
<glyph unicode="&#xbd;" horiz-adv-x="1614" d="M68 1226q0 16 31 25l225 64q8 2 10 2q22 0 22 -35v-662l67 -16q14 -3 18.5 -7.5t4.5 -16.5v-54q0 -14 -4.5 -18t-18.5 -4h-285q-14 0 -18.5 4t-4.5 18v54q0 12 5 16.5t19 7.5l67 16v526q-58 -16 -116 -25q-18 0 -19 19zM357 4q0 4 11 26l615 1259q9 16 27 16h127 q18 0 18 -15q0 -5 -7 -18l-619 -1268q-7 -15 -28 -15h-124q-20 0 -20 15zM1002 34q0 168 206 327q105 80 144 123.5t39 93.5q0 47 -37.5 73.5t-83.5 26.5q-45 0 -81.5 -27t-49.5 -78q-7 -25 -17 -25q-3 0 -6 1l-104 32q-8 2 -8 10q0 5 2 15q22 90 90 147t176 57 q110 0 185.5 -60t75.5 -166q0 -52 -14 -94.5t-45 -79t-61.5 -62.5t-80.5 -61q-61 -44 -100 -81.5t-58 -81.5h261l13 53q3 13 7 18t14 5h56q13 0 17 -6.5t5 -22.5l6 -141q0 -10 -5 -18q-9 -12 -24 -12h-494q-28 0 -28 34z" />
<glyph unicode="&#xbe;" horiz-adv-x="1643" d="M85 535l12 76q3 20 19 20l22 -3q56 -7 101 -7q103 0 155.5 46t52.5 104q0 102 -144 102q-15 0 -47.5 -1t-45.5 -1q-12 0 -20 8.5t-8 19.5t11 29l174 258h-183l-13 -41q-8 -25 -18 -25h-50q-17 0 -17 32v125q0 28 23 28h440q12 0 22 -7t10 -19q0 -11 -20 -39 q-137 -200 -175 -253q87 -10 149.5 -61t62.5 -148q0 -119 -90 -201t-249 -82q-89 0 -157 18q-17 4 -17 22zM433 4q0 6 10 26q104 214 617 1259q8 16 25 16h127q20 0 20 -15q0 -2 -7 -18q-70 -143 -286 -585t-334 -683q-7 -15 -27 -15h-125q-20 0 -20 15zM1016 201v59 q0 17 18 55q51 103 230 462q8 20 33 20h101q21 0 21 -19q0 -6 -7 -20q-27 -54 -72 -146.5t-83 -169t-73 -146.5h156v135q0 26 23 26h103q24 0 24 -26v-135h58q26 0 26 -22v-74q0 -23 -26 -23h-58v-152q0 -25 -24 -25h-103q-23 0 -23 25v152h-288q-18 0 -27 4.5t-9 19.5z" />
<glyph unicode="&#xbf;" horiz-adv-x="798" d="M62 -22q0 50 12.5 94t40.5 87.5t48.5 69.5t60.5 72l18 20q107 116 110 240q0 21 17 21h137q18 0 18 -20v-5q-1 -92 -34.5 -172t-112.5 -167q-61 -68 -93 -122t-32 -118q0 -88 51.5 -136.5t149.5 -48.5q67 0 154 17l29 110q4 18 21 18h59q17 0 18 -19q16 -182 17 -205 q0 -16 -15 -21l-10 -3q-163 -45 -284 -45q-56 0 -107 9t-102 32.5t-88 60t-60 96t-23 135.5zM310 862q0 55 36.5 91t91.5 36q56 0 91.5 -35.5t35.5 -91.5q0 -54 -36.5 -91.5t-90.5 -37.5t-91 37.5t-37 91.5z" />
<glyph unicode="&#xc0;" d="M44 12q0 5 2 12q56 168 119.5 357t141 419.5t119.5 357.5l-99 32q-21 7 -21 27v69q0 8 6 13.5t15 5.5h383q16 0 21 -16l401 -1270q2 -6 2 -8q0 -11 -16 -11h-165q-16 0 -22 17l-94 321h-494l-98 -321q-6 -17 -22 -17h-164q-15 0 -15 12zM278 1666q0 12 22 12h155 q17 0 25 -1t18 -8t22 -22l140 -180q12 -17 12 -22q0 -11 -19 -11h-113q-24 0 -42 18l-189 171q-31 29 -31 43zM386 488h408l-34 116q-147 517 -162 564q-17 -53 -78 -255t-134 -425z" />
<glyph unicode="&#xc1;" d="M44 12q0 5 2 12q56 168 119.5 357t141 419.5t119.5 357.5l-99 32q-21 7 -21 27v69q0 8 6 13.5t15 5.5h383q16 0 21 -16l401 -1270q2 -6 2 -8q0 -11 -16 -11h-165q-16 0 -22 17l-94 321h-494l-98 -321q-6 -17 -22 -17h-164q-15 0 -15 12zM386 488h408l-34 116 q-147 517 -162 564q-17 -53 -78 -255t-134 -425zM476 1443q0 9 10 23l141 180q16 20 26 25t30 6h165q21 0 21 -12q0 -14 -31 -43l-188 -171q-18 -18 -43 -18h-113q-18 0 -18 10z" />
<glyph unicode="&#xc2;" d="M44 12q0 5 2 12q56 168 119.5 357t141 419.5t119.5 357.5l-99 32q-21 7 -21 27v69q0 8 6 13.5t15 5.5h383q16 0 21 -16l401 -1270q2 -6 2 -8q0 -11 -16 -11h-165q-16 0 -22 17l-94 321h-494l-98 -321q-6 -17 -22 -17h-164q-15 0 -15 12zM286 1455q0 9 9 20l141 175 q3 3 10.5 12t12 13.5t13.5 8.5t18 4h147q22 0 36.5 -8t32.5 -30l142 -175q9 -11 9 -20t-43 -22.5t-62 -13.5q-16 0 -39 21l-142 123l-140 -123q-25 -21 -40 -21q-9 0 -27 4q-4 1 -13.5 3.5t-15.5 4t-14.5 4t-13.5 4.5t-10.5 4.5t-8 5.5t-2.5 6zM386 488h408l-34 116 q-147 517 -162 564q-17 -53 -78 -255t-134 -425z" />
<glyph unicode="&#xc3;" d="M44 12q0 5 2 12q56 168 119.5 357t141 419.5t119.5 357.5l-99 32q-21 7 -21 27v69q0 8 6 13.5t15 5.5h383q16 0 21 -16l401 -1270q2 -6 2 -8q0 -11 -16 -11h-165q-16 0 -22 17l-94 321h-494l-98 -321q-6 -17 -22 -17h-164q-15 0 -15 12zM297 1516q0 7 5 14 q39 59 81.5 89.5t97.5 30.5q44 0 99.5 -34.5t82.5 -34.5q34 0 98 57q7 8 13 8q4 0 9 -6l58 -64q5 -5 5 -10q0 -7 -5 -15q-30 -57 -77.5 -88t-101.5 -31q-43 0 -99.5 34.5t-80.5 34.5q-44 0 -100 -58q-6 -6 -12 -6q-3 0 -5 2l-65 68q-3 3 -3 9zM386 488h408l-34 116 q-147 517 -162 564q-17 -53 -78 -255t-134 -425z" />
<glyph unicode="&#xc4;" d="M44 12q0 5 2 12q56 168 119.5 357t141 419.5t119.5 357.5l-99 32q-21 7 -21 27v69q0 8 6 13.5t15 5.5h383q16 0 21 -16l401 -1270q2 -6 2 -8q0 -11 -16 -11h-165q-16 0 -22 17l-94 321h-494l-98 -321q-6 -17 -22 -17h-164q-15 0 -15 12zM290 1529q0 43 27 69t71 26 t71 -26t27 -69q0 -42 -27 -68.5t-71 -26.5t-71 26.5t-27 68.5zM386 488h408l-34 116q-147 517 -162 564q-17 -53 -78 -255t-134 -425zM633 1529q0 43 27 69t72 26q44 0 70.5 -26t26.5 -69q0 -42 -27 -68.5t-70 -26.5q-45 0 -72 26.5t-27 68.5z" />
<glyph unicode="&#xc5;" d="M44 12q0 5 2 12q56 168 119.5 357t141 419.5t119.5 357.5l-99 32q-21 7 -21 27v69q0 8 6 13.5t15 5.5h383q16 0 21 -16l401 -1270q2 -6 2 -8q0 -11 -16 -11h-165q-16 0 -22 17l-94 321h-494l-98 -321q-6 -17 -22 -17h-164q-15 0 -15 12zM384 1593q0 78 52.5 127.5 t141.5 49.5q87 0 137 -49t50 -126q0 -74 -53 -122t-137 -48q-86 0 -138.5 48t-52.5 120zM386 488h408l-34 116q-147 517 -162 564q-17 -53 -78 -255t-134 -425zM500 1595q0 -31 19.5 -54.5t52.5 -23.5q36 0 56.5 22.5t20.5 56.5t-20.5 56.5t-54.5 22.5q-35 0 -54.5 -22.5 t-19.5 -57.5z" />
<glyph unicode="&#xc6;" horiz-adv-x="1588" d="M33 15q0 3 2 9q72 153 254 538.5t281 595.5l-99 32q-20 7 -20 27v69q0 19 20 19h1011q17 0 23.5 -7t6.5 -24v-92q0 -17 -6.5 -24t-23.5 -7h-563l42 -374h460q32 0 32 -31v-93q0 -16 -7 -22.5t-25 -6.5h-443l53 -470h467q26 0 26 -30v-96q0 -28 -26 -28h-616q-6 0 -11 5 t-6 11l-36 320h-452q-21 -48 -144 -319q-7 -17 -21 -17h-164q-15 0 -15 15zM441 489h369q-13 135 -36 354t-32 307q-219 -475 -301 -661z" />
<glyph unicode="&#xc7;" horiz-adv-x="1085" d="M86 645q0 200 74 355t215.5 242.5t330.5 87.5q174 0 310 -62q14 -6 14 -23q-4 -142 -5 -207q0 -19 -19 -19h-76q-14 0 -19 17l-41 122q-77 24 -145 24q-202 0 -321.5 -149t-119.5 -378q0 -255 106 -392.5t330 -137.5q56 0 117 11t94 22l33 11q9 3 14 3q12 0 16 -13 l32 -99q1 -3 1 -6q0 -8 -13 -16q-8 -6 -37 -18.5t-105.5 -28.5t-161.5 -16h-11l-19 -74q71 -15 107 -52.5t36 -90.5q0 -88 -67 -138t-173 -50q-79 0 -115 11q-8 3 -8 10t24 81q5 14 15 14q2 0 17 -2.5t30.5 -4.5t25.5 -2q42 0 70.5 19t28.5 50q0 32 -27.5 50.5t-64.5 18.5 q-18 0 -31 -1q-17 0 -17 9q0 1 3 10l44 152q-240 35 -366 202t-126 458z" />
<glyph unicode="&#xc8;" horiz-adv-x="1022" d="M68 1211v75q0 19 20 19h838q17 0 23.5 -7t6.5 -24v-92q0 -17 -6.5 -24t-23.5 -7h-539v-374h392q18 0 24.5 -7t6.5 -24v-92q0 -16 -7 -23t-24 -7h-392v-470h542q15 0 20 -7.5t5 -22.5v-96q0 -14 -5 -21t-20 -7h-706q-15 0 -20 6.5t-5 21.5v1120l-113 42q-17 6 -17 21z M276 1665q0 12 23 12h155q24 0 36 -4.5t29 -26.5l140 -180q12 -17 12 -22q0 -11 -19 -11h-113q-24 0 -42 18l-189 171q-32 30 -32 43z" />
<glyph unicode="&#xc9;" horiz-adv-x="1022" d="M68 1211v75q0 19 20 19h838q17 0 23.5 -7t6.5 -24v-92q0 -17 -6.5 -24t-23.5 -7h-539v-374h392q18 0 24.5 -7t6.5 -24v-92q0 -16 -7 -23t-24 -7h-392v-470h542q15 0 20 -7.5t5 -22.5v-96q0 -14 -5 -21t-20 -7h-706q-15 0 -20 6.5t-5 21.5v1120l-113 42q-17 6 -17 21z M415 1443q0 9 10 23l140 180q16 20 26.5 25t30.5 6h164q22 0 22 -12q0 -13 -32 -43l-187 -171q-18 -18 -43 -18h-114q-17 0 -17 10z" />
<glyph unicode="&#xca;" horiz-adv-x="1022" d="M68 1211v75q0 19 20 19h838q17 0 23.5 -7t6.5 -24v-92q0 -17 -6.5 -24t-23.5 -7h-539v-374h392q18 0 24.5 -7t6.5 -24v-92q0 -16 -7 -23t-24 -7h-392v-470h542q15 0 20 -7.5t5 -22.5v-96q0 -14 -5 -21t-20 -7h-706q-15 0 -20 6.5t-5 21.5v1120l-113 42q-17 6 -17 21z M262 1455q0 9 9 20l142 175q3 3 10.5 12t12 13.5t13.5 8.5t18 4h146q22 0 36.5 -8t32.5 -30l142 -175q10 -12 10 -20q0 -9 -43.5 -22.5t-62.5 -13.5q-16 0 -39 21l-141 123l-140 -123q-25 -21 -40 -21q-10 0 -28 4q-4 1 -13.5 3.5t-15.5 4t-14.5 4t-13.5 4.5t-10.5 4.5 t-8 5.5t-2.5 6z" />
<glyph unicode="&#xcb;" horiz-adv-x="1022" d="M68 1211v75q0 19 20 19h838q17 0 23.5 -7t6.5 -24v-92q0 -17 -6.5 -24t-23.5 -7h-539v-374h392q18 0 24.5 -7t6.5 -24v-92q0 -16 -7 -23t-24 -7h-392v-470h542q15 0 20 -7.5t5 -22.5v-96q0 -14 -5 -21t-20 -7h-706q-15 0 -20 6.5t-5 21.5v1120l-113 42q-17 6 -17 21z M284 1529q0 43 27 69t71 26t71 -26t27 -69q0 -42 -27 -68.5t-71 -26.5t-71 26.5t-27 68.5zM627 1529q0 43 27 69t72 26q44 0 70.5 -26t26.5 -69q0 -42 -27 -68.5t-70 -26.5q-45 0 -72 26.5t-27 68.5z" />
<glyph unicode="&#xcc;" horiz-adv-x="660" d="M45 1667q0 12 23 12h154q17 0 25 -1t18.5 -8t22.5 -22l140 -180q11 -15 11 -22q0 -11 -18 -11h-114q-24 0 -42 18l-188 171q-32 30 -32 43zM92 24v63q0 14 4 19t20 9l120 28v1018l-120 28q-16 4 -20 9.5t-4 19.5v63q0 13 5.5 18.5t20.5 5.5h425q15 0 20 -5.5t5 -18.5v-63 q0 -13 -4.5 -19t-18.5 -10l-119 -28v-1018l119 -28q16 -4 19.5 -9t3.5 -19v-63q0 -14 -5 -19t-20 -5h-425q-15 0 -20.5 5t-5.5 19z" />
<glyph unicode="&#xcd;" horiz-adv-x="660" d="M92 24v63q0 14 4 19t20 9l120 28v1018l-120 28q-16 4 -20 9.5t-4 19.5v63q0 13 5.5 18.5t20.5 5.5h425q15 0 20 -5.5t5 -18.5v-63q0 -13 -4.5 -19t-18.5 -10l-119 -28v-1018l119 -28q16 -4 19.5 -9t3.5 -19v-63q0 -14 -5 -19t-20 -5h-425q-15 0 -20.5 5t-5.5 19z M211 1443q0 9 10 23l140 180q16 20 26.5 25t30.5 6h165q21 0 21 -12q0 -13 -32 -43l-187 -171q-18 -18 -43 -18h-114q-17 0 -17 10z" />
<glyph unicode="&#xce;" horiz-adv-x="660" d="M44 1455q0 9 9 20l142 175q3 3 10.5 12t12 13.5t13.5 8.5t18 4h146q22 0 36.5 -8t32.5 -30l142 -175q9 -11 9 -20t-43 -22.5t-62 -13.5q-16 0 -39 21l-141 123l-141 -123q-25 -21 -39 -21q-10 0 -28 4q-4 1 -13.5 3.5t-15.5 4t-14.5 4t-13.5 4.5t-10.5 4.5t-8 5.5t-2.5 6 zM92 24v63q0 14 4 19t20 9l120 28v1018l-120 28q-16 4 -20 9.5t-4 19.5v63q0 13 5.5 18.5t20.5 5.5h425q15 0 20 -5.5t5 -18.5v-63q0 -13 -4.5 -19t-18.5 -10l-119 -28v-1018l119 -28q16 -4 19.5 -9t3.5 -19v-63q0 -14 -5 -19t-20 -5h-425q-15 0 -20.5 5t-5.5 19z" />
<glyph unicode="&#xcf;" horiz-adv-x="660" d="M60 1529q0 43 27.5 69t71.5 26t71 -26t27 -69q0 -42 -27 -68.5t-71 -26.5t-71.5 26.5t-27.5 68.5zM92 24v63q0 14 4 19t20 9l120 28v1018l-120 28q-16 4 -20 9.5t-4 19.5v63q0 13 5.5 18.5t20.5 5.5h425q15 0 20 -5.5t5 -18.5v-63q0 -13 -4.5 -19t-18.5 -10l-119 -28 v-1018l119 -28q16 -4 19.5 -9t3.5 -19v-63q0 -14 -5 -19t-20 -5h-425q-15 0 -20.5 5t-5.5 19zM403 1529q0 43 27.5 69t72.5 26q44 0 70.5 -26t26.5 -69q0 -42 -27 -68.5t-70 -26.5q-45 0 -72.5 26.5t-27.5 68.5z" />
<glyph unicode="&#xd0;" horiz-adv-x="1256" d="M68 611v107q0 16 17 16h114v414l-113 42q-17 6 -17 21v75q0 19 20 19q84 0 236.5 1t202.5 1q322 0 486.5 -164.5t164.5 -488.5q0 -292 -159.5 -468.5t-440.5 -198.5q-47 -3 -94 -3q-73 0 -233 10q-53 3 -53 33v567h-114q-10 0 -13.5 3.5t-3.5 13.5zM387 1157 q0 -71 0.5 -212t0.5 -211h187q18 0 18 -15v-107q0 -18 -16 -18h-189v-457q48 -6 119 -6q215 0 344 145t129 378q0 85 -11 153.5t-41.5 135.5t-81.5 112t-135.5 73t-198.5 28q-21 0 -62.5 0.5t-62.5 0.5z" />
<glyph unicode="&#xd1;" horiz-adv-x="1324" d="M68 1211v75q0 19 20 19h298q22 0 32 -19l461 -805q32 -57 66 -123.5t37 -78.5h5v996q0 30 28 30h136q26 0 26 -29v-1243q0 -15 -5.5 -22.5t-11.5 -9t-17 -1.5h-139q-34 0 -53 34q-261 447 -449 785q-97 176 -107 212h-5v-1003q0 -14 -5 -21t-20 -7h-139q-15 0 -20 6.5 t-5 21.5v1126q-19 6 -57.5 18t-58.5 18q-17 4 -17 21zM417 1509q0 8 5 15q39 59 81.5 89.5t97.5 30.5q44 0 99 -34.5t82 -34.5q35 0 99 57q7 7 13 7q5 0 9 -5l58 -64q5 -5 5 -10q0 -7 -5 -15q-30 -57 -78 -88.5t-102 -31.5q-43 0 -99 35t-80 35q-44 0 -100 -58q-6 -6 -13 -6 q-3 0 -5 2l-64 68q-3 3 -3 8z" />
<glyph unicode="&#xd2;" horiz-adv-x="1246" d="M85 662q0 149 30 267.5t93 209.5t168.5 140.5t247.5 49.5q141 0 246.5 -49.5t168 -140.5t92.5 -210t30 -267q0 -119 -17 -217.5t-46 -168.5t-71 -123.5t-87.5 -86.5t-100 -54t-104.5 -29t-104 -8h-16q-54 0 -104 8t-104.5 29t-100 54t-87.5 86.5t-71 123.5t-46 168.5 t-17 217.5zM284 660q0 -134 21 -233.5t53 -155.5t79.5 -90t90.5 -44t95 -10q36 0 67.5 5t67 19.5t64 38.5t56 65t45.5 95.5t29 133.5t11 176q0 518 -341 518q-338 0 -338 -518zM361 1665q0 12 23 12h155q17 0 25 -1t18 -8t22 -22l140 -180q12 -17 12 -22q0 -11 -19 -11h-113 q-24 0 -42 18l-189 171q-32 30 -32 43z" />
<glyph unicode="&#xd3;" horiz-adv-x="1246" d="M85 662q0 149 30 267.5t93 209.5t168.5 140.5t247.5 49.5q141 0 246.5 -49.5t168 -140.5t92.5 -210t30 -267q0 -119 -17 -217.5t-46 -168.5t-71 -123.5t-87.5 -86.5t-100 -54t-104.5 -29t-104 -8h-16q-54 0 -104 8t-104.5 29t-100 54t-87.5 86.5t-71 123.5t-46 168.5 t-17 217.5zM284 660q0 -134 21 -233.5t53 -155.5t79.5 -90t90.5 -44t95 -10q36 0 67.5 5t67 19.5t64 38.5t56 65t45.5 95.5t29 133.5t11 176q0 518 -341 518q-338 0 -338 -518zM495 1443q0 9 10 23l140 180q16 20 26 25t30 6h165q22 0 22 -12q0 -13 -32 -43l-187 -171 q-18 -18 -43 -18h-114q-17 0 -17 10z" />
<glyph unicode="&#xd4;" horiz-adv-x="1246" d="M85 662q0 149 30 267.5t93 209.5t168.5 140.5t247.5 49.5q141 0 246.5 -49.5t168 -140.5t92.5 -210t30 -267q0 -119 -17 -217.5t-46 -168.5t-71 -123.5t-87.5 -86.5t-100 -54t-104.5 -29t-104 -8h-16q-54 0 -104 8t-104.5 29t-100 54t-87.5 86.5t-71 123.5t-46 168.5 t-17 217.5zM284 660q0 -134 21 -233.5t53 -155.5t79.5 -90t90.5 -44t95 -10q36 0 67.5 5t67 19.5t64 38.5t56 65t45.5 95.5t29 133.5t11 176q0 518 -341 518q-338 0 -338 -518zM340 1455q0 9 9 20l141 175q3 3 11 12t12.5 13t13.5 8.5t18 4.5h146q22 0 36.5 -8t32.5 -30 l142 -175q9 -11 9 -20t-43 -22.5t-62 -13.5q-16 0 -39 21l-141 123l-141 -123q-25 -21 -40 -21q-9 0 -27 4q-4 1 -13.5 3.5t-15.5 4t-14.5 4t-13.5 4.5t-10.5 4.5t-8 5.5t-2.5 6z" />
<glyph unicode="&#xd5;" horiz-adv-x="1246" d="M85 662q0 149 30 267.5t93 209.5t168.5 140.5t247.5 49.5q141 0 246.5 -49.5t168 -140.5t92.5 -210t30 -267q0 -119 -17 -217.5t-46 -168.5t-71 -123.5t-87.5 -86.5t-100 -54t-104.5 -29t-104 -8h-16q-54 0 -104 8t-104.5 29t-100 54t-87.5 86.5t-71 123.5t-46 168.5 t-17 217.5zM284 660q0 -134 21 -233.5t53 -155.5t79.5 -90t90.5 -44t95 -10q36 0 67.5 5t67 19.5t64 38.5t56 65t45.5 95.5t29 133.5t11 176q0 518 -341 518q-338 0 -338 -518zM353 1509q0 8 5 15q80 120 180 120q44 0 99 -34.5t82 -34.5q34 0 98 57q7 7 13 7t10 -5l57 -64 q5 -5 5 -10q0 -7 -5 -15q-30 -57 -77.5 -88.5t-101.5 -31.5q-43 0 -99 35t-80 35q-45 0 -101 -58q-6 -6 -12 -6q-3 0 -5 2l-65 68q-3 3 -3 8z" />
<glyph unicode="&#xd6;" horiz-adv-x="1246" d="M85 662q0 149 30 267.5t93 209.5t168.5 140.5t247.5 49.5q141 0 246.5 -49.5t168 -140.5t92.5 -210t30 -267q0 -119 -17 -217.5t-46 -168.5t-71 -123.5t-87.5 -86.5t-100 -54t-104.5 -29t-104 -8h-16q-54 0 -104 8t-104.5 29t-100 54t-87.5 86.5t-71 123.5t-46 168.5 t-17 217.5zM284 660q0 -134 21 -233.5t53 -155.5t79.5 -90t90.5 -44t95 -10q36 0 67.5 5t67 19.5t64 38.5t56 65t45.5 95.5t29 133.5t11 176q0 518 -341 518q-338 0 -338 -518zM357 1529q0 43 27.5 69t71.5 26t71 -26t27 -69q0 -42 -27 -68.5t-71 -26.5t-71.5 26.5 t-27.5 68.5zM700 1529q0 43 27.5 69t72.5 26q44 0 70.5 -26t26.5 -69q0 -42 -27 -68.5t-70 -26.5q-45 0 -72.5 26.5t-27.5 68.5z" />
<glyph unicode="&#xd7;" horiz-adv-x="827" d="M74 328q0 6 10 16l215 215l-217 217q-7 7 -7 14q0 5 6 11l93 93q5 5 11 5t12 -6l218 -218l219 218q7 7 12 8q6 0 10 -6l93 -92q5 -4 5 -10q0 -5 -8 -13l-218 -219l218 -218q8 -8 8 -12q0 -3 -9 -14l-88 -89q-7 -7 -14 -7q-4 0 -11 5l-218 218l-219 -218q-7 -7 -14 -7 q-5 0 -10 5l-91 92q-6 6 -6 12z" />
<glyph unicode="&#xd8;" horiz-adv-x="1239" d="M85 662q0 119 18 218t58.5 183.5t102 143t152 91.5t205.5 33q170 0 290 -74q49 82 91 155q13 20 31 20h101q13 -1 13 -13q0 -5 -3 -10l-137 -233q147 -170 147 -520q0 -118 -18 -215.5t-48.5 -167t-74 -123t-90.5 -86t-102.5 -53.5t-105.5 -29t-104 -8q-156 0 -271 67 q-37 -60 -79 -133q-11 -18 -31 -18h-95q-17 0 -17 13q0 3 5 13q22 39 64 108.5t57 95.5q-159 173 -159 542zM284 660q0 -234 62 -365q93 158 479 816q-78 70 -208 70q-78 0 -137.5 -28t-96 -74t-59.5 -114.5t-31.5 -141.5t-8.5 -163zM425 185q71 -60 192 -60q338 0 338 539 q0 214 -53 333q-80 -135 -238.5 -406t-238.5 -406z" />
<glyph unicode="&#xd9;" horiz-adv-x="1270" d="M46 1211v75q0 20 21 20h271q31 0 31 -33v-798q0 -160 76 -250t211 -90q136 0 215 85.5t79 244.5v812q0 15 5.5 22t20.5 7h138q26 0 26 -29v-792q0 -240 -130.5 -375t-354.5 -135q-223 0 -349.5 133.5t-126.5 378.5v667l-114 36q-19 6 -19 21zM406 1665q0 12 22 12h155 q17 0 25 -1t18 -8t22 -22l140 -180q12 -17 12 -22q0 -11 -19 -11h-113q-24 0 -42 18l-189 171q-31 29 -31 43z" />
<glyph unicode="&#xda;" horiz-adv-x="1270" d="M46 1211v75q0 20 21 20h271q31 0 31 -33v-798q0 -160 76 -250t211 -90q136 0 215 85.5t79 244.5v812q0 15 5.5 22t20.5 7h138q26 0 26 -29v-792q0 -240 -130.5 -375t-354.5 -135q-223 0 -349.5 133.5t-126.5 378.5v667l-114 36q-19 6 -19 21zM546 1443q0 9 10 23l140 180 q16 20 26.5 25t30.5 6h165q21 0 21 -12q0 -13 -32 -43l-187 -171q-18 -18 -43 -18h-114q-17 0 -17 10z" />
<glyph unicode="&#xdb;" horiz-adv-x="1270" d="M46 1211v75q0 20 21 20h271q31 0 31 -33v-798q0 -160 76 -250t211 -90q136 0 215 85.5t79 244.5v812q0 15 5.5 22t20.5 7h138q26 0 26 -29v-792q0 -240 -130.5 -375t-354.5 -135q-223 0 -349.5 133.5t-126.5 378.5v667l-114 36q-19 6 -19 21zM380 1450q0 8 9 19l141 176 q2 2 10.5 11.5t13 13.5t13.5 8t18 4h146q22 0 36.5 -7.5t32.5 -29.5l142 -176q9 -11 9 -19q0 -9 -43 -22.5t-62 -13.5q-16 0 -39 21l-141 123l-141 -123q-25 -21 -40 -21q-9 0 -27 4q-4 1 -13.5 3.5t-15.5 4t-14.5 4t-13.5 4.5t-10.5 4.5t-8 5.5t-2.5 6z" />
<glyph unicode="&#xdc;" horiz-adv-x="1270" d="M46 1211v75q0 20 21 20h271q31 0 31 -33v-798q0 -160 76 -250t211 -90q136 0 215 85.5t79 244.5v812q0 15 5.5 22t20.5 7h138q26 0 26 -29v-792q0 -240 -130.5 -375t-354.5 -135q-223 0 -349.5 133.5t-126.5 378.5v667l-114 36q-19 6 -19 21zM394 1529q0 43 27.5 69 t71.5 26t71 -26t27 -69q0 -42 -27 -68.5t-71 -26.5t-71.5 26.5t-27.5 68.5zM737 1529q0 43 27.5 69t72.5 26q44 0 70.5 -26t26.5 -69q0 -42 -27 -68.5t-70 -26.5q-45 0 -72.5 26.5t-27.5 68.5z" />
<glyph unicode="&#xdd;" horiz-adv-x="1102" d="M23 1211v75q0 19 20 19h252q9 0 18.5 -7.5t11.5 -20.5q13 -90 57.5 -320t70.5 -299q30 -84 147 -84q14 0 95 3q81 289 174 705q8 23 30 23h153q28 0 28 -16q-1 -7 -8 -36q-161 -637 -308 -1027q-49 -132 -131.5 -188t-231.5 -56q-124 0 -177 20q-12 5 -12 21l21 111 q3 17 20 17q1 0 20 -3t49 -6t57 -3q111 0 164.5 54t94.5 186l14 46q-14 0 -43 -0.5t-44 -0.5q-116 0 -177.5 34t-93.5 110q-20 47 -43.5 138t-55.5 233t-51 218l-105 30q-16 4 -16 24zM476 1443q0 9 10 23l141 180q16 20 26 25t30 6h165q21 0 21 -12q0 -14 -31 -43 l-188 -171q-18 -18 -43 -18h-113q-18 0 -18 10z" />
<glyph unicode="&#xde;" horiz-adv-x="1063" d="M68 1211v75q0 19 20 19h271q17 0 24 -7.5t7 -24.5v-202h84q267 0 403 -91t136 -304q0 -216 -138 -323t-395 -107h-90v-217q0 -29 -26 -29h-138q-15 0 -20 6.5t-5 21.5v1126l-116 36q-17 6 -17 21zM390 392h67q174 0 266.5 69t92.5 205q0 141 -85.5 200.5t-258.5 59.5 q-22 0 -50.5 -0.5t-31.5 -0.5v-533z" />
<glyph unicode="&#xdf;" horiz-adv-x="1139" d="M68 850v69q0 10 6 17t15 7h113v149q0 165 103 267t305 102q73 0 135.5 -18t113.5 -55t80.5 -102t29.5 -152q0 -114 -26 -173q-138 -62 -138 -159q0 -46 26 -82t83 -88q82 -74 123.5 -143.5t41.5 -162.5q0 -150 -89 -248t-237 -98q-125 0 -199 21q-22 7 -22 21l14 107 q2 19 19 19q102 -17 148 -17q84 0 133.5 58t49.5 144q0 56 -29 102t-90 102q-75 68 -110.5 122.5t-35.5 131.5q0 153 159 257q6 33 6 71q0 91 -46 140t-137 49q-57 0 -99 -17t-66 -43.5t-39 -65.5t-19.5 -75.5t-4.5 -80.5v-997q0 -15 -5.5 -22t-20.5 -7h-132q-15 0 -20 6.5 t-6 22.5v771l-112 28q-21 6 -21 22z" />
<glyph unicode="&#xe0;" horiz-adv-x="963" d="M68 253q0 57 15.5 102t40 75.5t63 53t77 35t90 19.5t93 9t94.5 2h85v74q0 107 -52.5 159.5t-162.5 52.5q-89 0 -220 -55q-1 0 -5.5 -2t-8.5 -3t-8 -1q-12 0 -13 8l-19 91l-1 8q0 11 25 26q44 27 133.5 51t156.5 25h7q242 0 316 -183q30 -77 30 -245v-435q4 -1 34.5 -10.5 t66.5 -19.5q14 -5 14 -17v-56q0 -15 -18 -16l-230 -15q-14 0 -18 19l-15 114q-126 -144 -289 -144q-127 0 -204 73.5t-77 204.5zM207 1341q0 13 22 13h155q24 0 36 -5t30 -27l140 -179q11 -15 11 -23q0 -11 -18 -11h-114q-24 0 -42 18l-188 171q-32 30 -32 43zM248 266 q0 -68 46 -106t114 -38q56 0 116 29.5t102 81.5v189h-81q-43 0 -73.5 -1.5t-68 -6.5t-62.5 -15.5t-48 -27t-34 -43.5t-11 -62z" />
<glyph unicode="&#xe1;" horiz-adv-x="963" d="M68 253q0 57 15.5 102t40 75.5t63 53t77 35t90 19.5t93 9t94.5 2h85v74q0 107 -52.5 159.5t-162.5 52.5q-89 0 -220 -55q-1 0 -5.5 -2t-8.5 -3t-8 -1q-12 0 -13 8l-19 91l-1 8q0 11 25 26q44 27 133.5 51t156.5 25h7q242 0 316 -183q30 -77 30 -245v-435q4 -1 34.5 -10.5 t66.5 -19.5q14 -5 14 -17v-56q0 -15 -18 -16l-230 -15q-14 0 -18 19l-15 114q-126 -144 -289 -144q-127 0 -204 73.5t-77 204.5zM248 266q0 -68 46 -106t114 -38q56 0 116 29.5t102 81.5v189h-81q-43 0 -73.5 -1.5t-68 -6.5t-62.5 -15.5t-48 -27t-34 -43.5t-11 -62z M351 1119q0 10 10 24l141 179q16 21 26.5 26t29.5 6h165q21 0 21 -13q0 -14 -31 -43l-188 -171q-18 -18 -43 -18h-113q-18 0 -18 10z" />
<glyph unicode="&#xe2;" horiz-adv-x="963" d="M68 253q0 57 15.5 102t40 75.5t63 53t77 35t90 19.5t93 9t94.5 2h85v74q0 107 -52.5 159.5t-162.5 52.5q-89 0 -220 -55q-1 0 -5.5 -2t-8.5 -3t-8 -1q-12 0 -13 8l-19 91l-1 8q0 11 25 26q44 27 133.5 51t156.5 25h7q242 0 316 -183q30 -77 30 -245v-435q4 -1 34.5 -10.5 t66.5 -19.5q14 -5 14 -17v-56q0 -15 -18 -16l-230 -15q-14 0 -18 19l-15 114q-126 -144 -289 -144q-127 0 -204 73.5t-77 204.5zM166 1127q0 9 9 20l141 175q3 3 11 12t12.5 13t13.5 8.5t18 4.5h146q22 0 36.5 -8t32.5 -30l142 -175q9 -11 9 -20t-43 -22t-62 -13 q-17 0 -39 20l-141 123l-141 -123q-24 -20 -40 -20q-9 0 -27 4q-5 1 -19 4.5t-22 6t-18 6t-14.5 7t-4.5 7.5zM248 266q0 -68 46 -106t114 -38q56 0 116 29.5t102 81.5v189h-81q-43 0 -73.5 -1.5t-68 -6.5t-62.5 -15.5t-48 -27t-34 -43.5t-11 -62z" />
<glyph unicode="&#xe3;" horiz-adv-x="963" d="M68 253q0 57 15.5 102t40 75.5t63 53t77 35t90 19.5t93 9t94.5 2h85v74q0 107 -52.5 159.5t-162.5 52.5q-89 0 -220 -55q-1 0 -5.5 -2t-8.5 -3t-8 -1q-12 0 -13 8l-19 91l-1 8q0 11 25 26q44 27 133.5 51t156.5 25h7q242 0 316 -183q30 -77 30 -245v-435q4 -1 34.5 -10.5 t66.5 -19.5q14 -5 14 -17v-56q0 -15 -18 -16l-230 -15q-14 0 -18 19l-15 114q-126 -144 -289 -144q-127 0 -204 73.5t-77 204.5zM175 1190q0 7 5 14q39 59 81.5 89.5t97.5 30.5q44 0 99.5 -34.5t82.5 -34.5q33 0 98 58q7 7 13 7t10 -5l57 -65q5 -5 5 -10q0 -6 -5 -14 q-30 -57 -77.5 -88.5t-101.5 -31.5q-43 0 -99.5 35t-80.5 35q-43 0 -100 -59q-6 -6 -12 -6q-3 0 -5 2l-65 69q-3 3 -3 8zM248 266q0 -68 46 -106t114 -38q56 0 116 29.5t102 81.5v189h-81q-43 0 -73.5 -1.5t-68 -6.5t-62.5 -15.5t-48 -27t-34 -43.5t-11 -62z" />
<glyph unicode="&#xe4;" horiz-adv-x="963" d="M68 253q0 57 15.5 102t40 75.5t63 53t77 35t90 19.5t93 9t94.5 2h85v74q0 107 -52.5 159.5t-162.5 52.5q-89 0 -220 -55q-1 0 -5.5 -2t-8.5 -3t-8 -1q-12 0 -13 8l-19 91l-1 8q0 11 25 26q44 27 133.5 51t156.5 25h7q242 0 316 -183q30 -77 30 -245v-435q4 -1 34.5 -10.5 t66.5 -19.5q14 -5 14 -17v-56q0 -15 -18 -16l-230 -15q-14 0 -18 19l-15 114q-126 -144 -289 -144q-127 0 -204 73.5t-77 204.5zM194 1211q0 43 27 69.5t71 26.5t71 -26.5t27 -69.5q0 -42 -27 -68.5t-71 -26.5t-71 26.5t-27 68.5zM248 266q0 -68 46 -106t114 -38 q56 0 116 29.5t102 81.5v189h-81q-43 0 -73.5 -1.5t-68 -6.5t-62.5 -15.5t-48 -27t-34 -43.5t-11 -62zM537 1211q0 43 27 69.5t72 26.5q43 0 70 -26.5t27 -69.5q0 -42 -27 -68.5t-70 -26.5q-45 0 -72 26.5t-27 68.5z" />
<glyph unicode="&#xe5;" horiz-adv-x="963" d="M68 253q0 57 15.5 102t40 75.5t63 53t77 35t90 19.5t93 9t94.5 2h85v74q0 107 -52.5 159.5t-162.5 52.5q-89 0 -220 -55q-1 0 -5.5 -2t-8.5 -3t-8 -1q-12 0 -13 8l-19 91l-1 8q0 11 25 26q44 27 133.5 51t156.5 25h7q242 0 316 -183q30 -77 30 -245v-435q4 -1 34.5 -10.5 t66.5 -19.5q14 -5 14 -17v-56q0 -15 -18 -16l-230 -15q-14 0 -18 19l-15 114q-126 -144 -289 -144q-127 0 -204 73.5t-77 204.5zM248 266q0 -68 46 -106t114 -38q56 0 116 29.5t102 81.5v189h-81q-43 0 -73.5 -1.5t-68 -6.5t-62.5 -15.5t-48 -27t-34 -43.5t-11 -62z M282 1266q0 79 52 128t141 49q87 0 137.5 -49t50.5 -126q0 -74 -53 -122t-137 -48q-86 0 -138.5 48t-52.5 120zM397 1268q0 -31 20 -55t53 -24q35 0 56 23t21 57t-20.5 56.5t-54.5 22.5q-36 0 -55.5 -22.5t-19.5 -57.5z" />
<glyph unicode="&#xe6;" horiz-adv-x="1515" d="M68 253q0 79 26.5 137t67.5 91t102.5 53t119 26t129.5 6h111v62q0 106 -53 157t-163 51q-78 0 -202 -49q-36 -15 -45 -15q-11 0 -11 18l-6 101q0 10 17 19q44 24 128.5 48.5t145.5 24.5q111 0 188 -36.5t127 -121.5q113 158 304 158q201 0 290.5 -123.5t89.5 -391.5 q0 -33 -24 -33h-593q16 -312 319 -312q112 0 231 47q10 4 12 4q15 0 19 -23l16 -96q0 -10 -14 -18q-142 -62 -300 -62q-254 0 -358 165q-70 -86 -169 -126t-197 -40q-133 0 -220.5 73.5t-87.5 205.5zM242 266q0 -67 45 -106t112 -41q139 0 222 102q0 36 0.5 107.5t0.5 106.5 h-105q-45 0 -77 -2t-72 -12t-65.5 -27t-43 -50t-17.5 -78zM821 577h435v20q0 114 -52.5 178.5t-146.5 64.5q-102 0 -163 -74t-73 -189z" />
<glyph unicode="&#xe7;" horiz-adv-x="914" d="M89 482q0 224 125.5 362t338.5 138q58 0 146 -14.5t125 -35.5q18 -10 18 -27l-13 -189q-1 -20 -18 -20h-58q-15 0 -19 14l-28 112q-69 16 -149 16q-128 0 -202 -97t-74 -258q0 -163 77 -261t222 -98q113 0 227 37q14 4 20 4q13 0 16 -18l16 -104q0 -10 -12 -15 q-35 -18 -119 -34.5t-151 -17.5l-20 -75q143 -29 143 -143q0 -88 -67 -138t-172 -50q-78 0 -113 11q-8 3 -8 10q0 3 3 15l22 66q5 14 14 14q2 0 5.5 -1t6.5 -1q44 -7 63 -7q41 0 69 19t28 50q0 34 -28.5 51.5t-66.5 17.5q-15 0 -28 -1q-15 0 -15 9q0 4 2 10l41 153 q-180 30 -273.5 157.5t-93.5 338.5z" />
<glyph unicode="&#xe8;" horiz-adv-x="987" d="M86 482q0 224 114.5 364t316.5 140q200 0 294 -121.5t94 -383.5q0 -31 -23 -31h-612q8 -167 91.5 -246.5t240.5 -79.5q109 0 236 47q9 3 13 3q16 0 18 -21q2 -19 8.5 -53.5t7.5 -43.5q0 -12 -15 -18q-146 -63 -305 -63q-226 0 -352.5 133t-126.5 374zM267 1341 q0 13 23 13h154q24 0 36 -5t30 -27l140 -179q12 -17 12 -23q0 -11 -19 -11h-114q-24 0 -42 18l-188 171q-32 30 -32 43zM275 591h449q-14 251 -203 251q-103 0 -166.5 -69t-79.5 -182z" />
<glyph unicode="&#xe9;" horiz-adv-x="987" d="M86 482q0 224 114.5 364t316.5 140q200 0 294 -121.5t94 -383.5q0 -31 -23 -31h-612q8 -167 91.5 -246.5t240.5 -79.5q109 0 236 47q9 3 13 3q16 0 18 -21q2 -19 8.5 -53.5t7.5 -43.5q0 -12 -15 -18q-146 -63 -305 -63q-226 0 -352.5 133t-126.5 374zM275 591h449 q-14 251 -203 251q-103 0 -166.5 -69t-79.5 -182zM384 1119q0 10 10 24l141 179q16 21 26.5 26t29.5 6h165q21 0 21 -13t-32 -43l-187 -171q-18 -18 -43 -18h-114q-17 0 -17 10z" />
<glyph unicode="&#xea;" horiz-adv-x="987" d="M86 482q0 224 114.5 364t316.5 140q200 0 294 -121.5t94 -383.5q0 -31 -23 -31h-612q8 -167 91.5 -246.5t240.5 -79.5q109 0 236 47q9 3 13 3q16 0 18 -21q2 -19 8.5 -53.5t7.5 -43.5q0 -12 -15 -18q-146 -63 -305 -63q-226 0 -352.5 133t-126.5 374zM234 1127q0 8 10 20 l141 175q3 3 10.5 12t12 13.5t13.5 8.5t18 4h147q22 0 36 -8t32 -30l143 -175q9 -11 9 -20t-43.5 -22t-62.5 -13q-16 0 -38 20l-142 123l-140 -123q-24 -20 -40 -20q-10 0 -28 4q-5 1 -19 4.5t-22 6t-18 6t-14.5 7t-4.5 7.5zM275 591h449q-14 251 -203 251 q-103 0 -166.5 -69t-79.5 -182z" />
<glyph unicode="&#xeb;" horiz-adv-x="987" d="M86 482q0 224 114.5 364t316.5 140q200 0 294 -121.5t94 -383.5q0 -31 -23 -31h-612q8 -167 91.5 -246.5t240.5 -79.5q109 0 236 47q9 3 13 3q16 0 18 -21q2 -19 8.5 -53.5t7.5 -43.5q0 -12 -15 -18q-146 -63 -305 -63q-226 0 -352.5 133t-126.5 374zM239 1210 q0 43 27 69.5t71 26.5t71 -26.5t27 -69.5q0 -42 -27 -68.5t-71 -26.5t-71 26.5t-27 68.5zM275 591h449q-14 251 -203 251q-103 0 -166.5 -69t-79.5 -182zM582 1210q0 43 27 69.5t72 26.5q43 0 70 -26.5t27 -69.5q0 -42 -27 -68.5t-70 -26.5q-45 0 -72 26.5t-27 68.5z" />
<glyph unicode="&#xec;" horiz-adv-x="552" d="M-41 1341q0 13 23 13h154q24 0 36 -5t30 -27l140 -179q11 -15 11 -23q0 -11 -18 -11h-114q-24 0 -42 18l-188 171q-32 30 -32 43zM54 865v66q0 19 22 21l268 23q10 0 17 -7.5t7 -19.5v-811l118 -26q18 -4 18 -19v-66q0 -20 -23 -22q-201 -13 -273 -19q-10 0 -17 6.5 t-7 16.5v811l-112 28q-18 4 -18 18z" />
<glyph unicode="&#xed;" horiz-adv-x="543" d="M51 865v66q0 19 22 21l268 23q10 0 17 -7.5t7 -19.5v-811l118 -26q18 -4 18 -19v-66q0 -20 -23 -22q-201 -13 -273 -19q-10 0 -17 6.5t-7 16.5v811l-112 28q-18 4 -18 18zM128 1119q0 10 10 24l141 179q16 21 26.5 26t29.5 6h165q21 0 21 -13t-32 -43l-187 -171 q-18 -18 -43 -18h-114q-17 0 -17 10z" />
<glyph unicode="&#xee;" horiz-adv-x="545" d="M-32 1127q0 9 9 20l142 175q3 3 10.5 12t12 13.5t13.5 8.5t18 4h146q22 0 36.5 -8t32.5 -30l142 -175q10 -12 10 -20q0 -9 -43.5 -22t-62.5 -13q-17 0 -39 20l-141 123l-140 -123q-24 -20 -40 -20q-10 0 -28 4q-5 1 -19 4.5t-22 6t-18 6t-14.5 7t-4.5 7.5zM53 865v66 q0 19 22 21l268 23q10 0 17 -7.5t7 -19.5v-811l118 -26q18 -4 18 -19v-66q0 -20 -23 -22q-201 -13 -273 -19q-10 0 -17 6.5t-7 16.5v811l-112 28q-18 4 -18 18z" />
<glyph unicode="&#xef;" horiz-adv-x="546" d="M-29 1211q0 43 27.5 69.5t71.5 26.5t71 -26.5t27 -69.5q0 -42 -27 -68.5t-71 -26.5t-71.5 26.5t-27.5 68.5zM54 865v66q0 19 22 21l268 23q10 0 17 -7.5t7 -19.5v-811l118 -26q18 -4 18 -19v-66q0 -20 -23 -22q-201 -13 -273 -19q-10 0 -17 6.5t-7 16.5v811l-112 28 q-18 4 -18 18zM314 1211q0 43 27.5 69.5t72.5 26.5q43 0 70 -26.5t27 -69.5q0 -42 -27 -68.5t-70 -26.5q-45 0 -72.5 26.5t-27.5 68.5z" />
<glyph unicode="&#xf0;" horiz-adv-x="1065" d="M86 479q0 97 23 179t63 138t93 95.5t112.5 57.5t123.5 18q118 0 216 -75q-68 149 -182 260q-144 -76 -216 -115q-8 -4 -13 -4q-9 0 -14 11l-49 92q-3 6 -3 9q0 7 12 15l167 90q-92 65 -193 104q-15 7 -15 16q0 3 2 7l51 111q2 5 10 5q6 0 12 -2q149 -49 286 -159 q58 31 172 93q12 6 14 6q4 0 6 -5l57 -105q2 -4 2 -6q0 -6 -11 -12l-131 -72q137 -144 218 -334.5t81 -384.5q0 -134 -35 -239t-96.5 -169t-140.5 -97t-172 -33q-92 0 -171.5 31t-142.5 91.5t-99.5 159t-36.5 223.5zM274 484q0 -95 23.5 -168t63 -114.5t85 -62.5t95.5 -21 q51 0 96 22t82.5 66t59.5 119t22 172q0 135 -68 252q-84 78 -203 78q-117 0 -186.5 -95t-69.5 -248z" />
<glyph unicode="&#xf1;" horiz-adv-x="1132" d="M48 866v67q0 19 22 21l242 19q21 0 24 -26l14 -116q90 76 172.5 114t173.5 38q127 0 198 -72t71 -202v-579l106 -27q16 -4 16 -19v-58q0 -19 -20 -21q-44 -3 -132 -7t-132 -7q-9 0 -15.5 7t-6.5 14v642q0 181 -158 181q-69 0 -139 -38t-126 -98v-676q0 -23 -21 -23h-141 q-22 0 -22 23v795l-107 27q-19 5 -19 21zM298 1190q0 7 5 14q39 59 81.5 89.5t97.5 30.5q44 0 99.5 -34.5t82.5 -34.5q33 0 98 58q7 7 13 7q5 0 9 -5l58 -65q5 -5 5 -10q0 -6 -5 -14q-30 -57 -77.5 -88.5t-101.5 -31.5q-43 0 -99.5 35t-80.5 35q-43 0 -100 -59q-6 -6 -12 -6 q-3 0 -5 2l-65 69q-3 3 -3 8z" />
<glyph unicode="&#xf2;" horiz-adv-x="1071" d="M86 485q0 253 121.5 375.5t324.5 122.5q95 0 175.5 -29t143.5 -87.5t98.5 -156.5t35.5 -227q0 -109 -24 -196t-64.5 -144.5t-98.5 -96t-123 -55t-140 -16.5q-93 0 -171 28t-142 86t-100 159.5t-36 236.5zM275 480q0 -191 71 -276.5t191 -85.5q118 0 187 84.5t69 275.5 q0 360 -264 360q-128 0 -191 -85t-63 -273zM276 1341q0 13 23 13h155q24 0 35.5 -5t29.5 -27l140 -179q12 -17 12 -23q0 -11 -19 -11h-113q-24 0 -42 18l-189 171q-32 30 -32 43z" />
<glyph unicode="&#xf3;" horiz-adv-x="1071" d="M86 485q0 253 121.5 375.5t324.5 122.5q95 0 175.5 -29t143.5 -87.5t98.5 -156.5t35.5 -227q0 -109 -24 -196t-64.5 -144.5t-98.5 -96t-123 -55t-140 -16.5q-93 0 -171 28t-142 86t-100 159.5t-36 236.5zM275 480q0 -191 71 -276.5t191 -85.5q118 0 187 84.5t69 275.5 q0 360 -264 360q-128 0 -191 -85t-63 -273zM404 1119q0 9 11 24l140 179q16 21 26.5 26t29.5 6h165q22 0 22 -13t-32 -43l-187 -171q-18 -18 -43 -18h-114q-18 0 -18 10z" />
<glyph unicode="&#xf4;" horiz-adv-x="1071" d="M86 485q0 253 121.5 375.5t324.5 122.5q95 0 175.5 -29t143.5 -87.5t98.5 -156.5t35.5 -227q0 -109 -24 -196t-64.5 -144.5t-98.5 -96t-123 -55t-140 -16.5q-93 0 -171 28t-142 86t-100 159.5t-36 236.5zM252 1127q0 9 9 20l141 175q3 3 11 12t12.5 13t13.5 8.5t18 4.5 h146q22 0 36.5 -8t32.5 -30l142 -175q9 -11 9 -20t-43 -22t-62 -13q-17 0 -39 20l-141 123l-141 -123q-24 -20 -40 -20q-9 0 -27 4q-5 1 -19 4.5t-22 6t-18 6t-14.5 7t-4.5 7.5zM275 480q0 -191 71 -276.5t191 -85.5q118 0 187 84.5t69 275.5q0 360 -264 360 q-128 0 -191 -85t-63 -273z" />
<glyph unicode="&#xf5;" horiz-adv-x="1071" d="M86 485q0 253 121.5 375.5t324.5 122.5q95 0 175.5 -29t143.5 -87.5t98.5 -156.5t35.5 -227q0 -109 -24 -196t-64.5 -144.5t-98.5 -96t-123 -55t-140 -16.5q-93 0 -171 28t-142 86t-100 159.5t-36 236.5zM275 480q0 -191 71 -276.5t191 -85.5q118 0 187 84.5t69 275.5 q0 360 -264 360q-128 0 -191 -85t-63 -273zM279 1190q0 7 5 14q39 59 81.5 89.5t97.5 30.5q44 0 99 -34.5t82 -34.5q33 0 98 58q8 7 14 7q5 0 9 -5l57 -65q5 -5 5 -10q0 -6 -5 -14q-30 -57 -77.5 -88.5t-101.5 -31.5q-43 0 -99 35t-80 35q-43 0 -100 -59q-6 -6 -13 -6 q-3 0 -5 2l-64 69q-3 3 -3 8z" />
<glyph unicode="&#xf6;" horiz-adv-x="1071" d="M86 485q0 253 121.5 375.5t324.5 122.5q95 0 175.5 -29t143.5 -87.5t98.5 -156.5t35.5 -227q0 -109 -24 -196t-64.5 -144.5t-98.5 -96t-123 -55t-140 -16.5q-93 0 -171 28t-142 86t-100 159.5t-36 236.5zM259 1211q0 43 27 69.5t71 26.5t71.5 -26.5t27.5 -69.5 q0 -42 -27.5 -68.5t-71.5 -26.5t-71 26.5t-27 68.5zM275 480q0 -191 71 -276.5t191 -85.5q118 0 187 84.5t69 275.5q0 360 -264 360q-128 0 -191 -85t-63 -273zM602 1211q0 43 27 69.5t72 26.5q44 0 71 -26.5t27 -69.5q0 -42 -27.5 -68.5t-70.5 -26.5q-45 0 -72 26.5 t-27 68.5z" />
<glyph unicode="&#xf7;" horiz-adv-x="921" d="M93 500v121q0 17 19 17h698q11 0 14.5 -3.5t3.5 -12.5v-120q0 -19 -17 -19h-698q-20 0 -20 17zM347 279q0 49 32.5 81.5t80.5 32.5q49 0 81.5 -32.5t32.5 -81.5t-32 -80.5t-82 -31.5t-81.5 31.5t-31.5 80.5zM347 836q0 48 32.5 81t80.5 33q49 0 81.5 -32.5t32.5 -81.5 t-32 -80.5t-82 -31.5t-81.5 31.5t-31.5 80.5z" />
<glyph unicode="&#xf8;" horiz-adv-x="1071" d="M86 485q0 253 122 376t326 123q125 0 222 -48l61 104q9 13 23 13h97q15 0 15 -12q0 -4 -4 -12l-95 -162q132 -130 132 -384q0 -136 -35.5 -236.5t-99 -158.5t-142 -85.5t-172.5 -27.5q-104 0 -187 32l-57 -97q-12 -20 -31 -20h-92q-17 0 -17 12q0 6 6 16l88 149 q-160 131 -160 418zM276 481q0 -170 59 -262l340 580q-57 39 -146 39q-128 0 -190.5 -85t-62.5 -272zM426 138q50 -20 112 -20q118 0 187 85t69 276q0 135 -40 218z" />
<glyph unicode="&#xf9;" horiz-adv-x="1122" d="M43 865v66q0 19 22 21l264 22q21 0 23 -26v-646q0 -180 158 -180q135 0 263 132v682q0 22 21 22h142q20 0 20 -22v-809l105 -25q16 -4 16 -19v-58q0 -19 -20 -21q-22 -1 -104.5 -6.5t-124.5 -6.5q-22 0 -26 19l-20 113q-91 -75 -173 -112t-174 -37q-124 0 -195 74.5 t-71 201.5v567l-108 27q-18 5 -18 21zM300 1341q0 13 23 13h154q24 0 36 -5t30 -27l140 -179q11 -15 11 -23q0 -11 -18 -11h-114q-24 0 -42 18l-188 171q-32 30 -32 43z" />
<glyph unicode="&#xfa;" horiz-adv-x="1122" d="M43 865v66q0 19 22 21l264 22q21 0 23 -26v-646q0 -180 158 -180q135 0 263 132v682q0 22 21 22h142q20 0 20 -22v-809l105 -25q16 -4 16 -19v-58q0 -19 -20 -21q-22 -1 -104.5 -6.5t-124.5 -6.5q-22 0 -26 19l-20 113q-91 -75 -173 -112t-174 -37q-124 0 -195 74.5 t-71 201.5v567l-108 27q-18 5 -18 21zM456 1119q0 10 10 24l140 179q16 20 26.5 25.5t30.5 6.5h164q22 0 22 -13t-32 -43l-187 -171q-18 -18 -43 -18h-114q-17 0 -17 10z" />
<glyph unicode="&#xfb;" horiz-adv-x="1122" d="M43 865v66q0 19 22 21l264 22q21 0 23 -26v-646q0 -180 158 -180q135 0 263 132v682q0 22 21 22h142q20 0 20 -22v-809l105 -25q16 -4 16 -19v-58q0 -19 -20 -21q-22 -1 -104.5 -6.5t-124.5 -6.5q-22 0 -26 19l-20 113q-91 -75 -173 -112t-174 -37q-124 0 -195 74.5 t-71 201.5v567l-108 27q-18 5 -18 21zM282 1127q0 9 9 20l141 175q3 3 10.5 12t12 13.5t13.5 8.5t18 4h147q22 0 36 -8t32 -30l143 -175q9 -11 9 -20t-43 -22t-62 -13q-17 0 -39 20l-142 123l-140 -123q-24 -20 -40 -20q-10 0 -28 4q-4 1 -19 4.5t-22 6t-17 6t-14.5 7 t-4.5 7.5z" />
<glyph unicode="&#xfc;" horiz-adv-x="1122" d="M43 865v66q0 19 22 21l264 22q21 0 23 -26v-646q0 -180 158 -180q135 0 263 132v682q0 22 21 22h142q20 0 20 -22v-809l105 -25q16 -4 16 -19v-58q0 -19 -20 -21q-22 -1 -104.5 -6.5t-124.5 -6.5q-22 0 -26 19l-20 113q-91 -75 -173 -112t-174 -37q-124 0 -195 74.5 t-71 201.5v567l-108 27q-18 5 -18 21zM292 1211q0 43 27 69.5t71 26.5t71 -26.5t27 -69.5q0 -42 -27 -68.5t-71 -26.5t-71 26.5t-27 68.5zM635 1211q0 43 27 69.5t72 26.5q43 0 70 -26.5t27 -69.5q0 -42 -27 -68.5t-70 -26.5q-45 0 -72 26.5t-27 68.5z" />
<glyph unicode="&#xfd;" horiz-adv-x="1075" d="M18 859v65q0 19 24 22l254 25q21 0 26 -25q7 -33 18 -93t16 -84q69 -341 121 -501q9 -27 15 -42.5t17 -35t25.5 -28.5t33.5 -9h44q134 323 234 779q5 26 28 26h157q24 0 24 -15q0 -6 -3 -18l-12 -43q-46 -177 -123.5 -394t-132.5 -346l-54 -128q-50 -117 -94 -195.5 t-101 -144.5t-127.5 -97.5t-157.5 -31.5q-81 0 -111 11q-12 4 -12 18l13 110q1 16 17 16q9 -1 26 -1q150 0 219 70q65 66 149 248h-32q-57 0 -94 23t-64 69q-44 76 -101 278q-35 127 -109 427l-114 26q-19 4 -19 19zM466 1119q0 10 10 24l140 179q16 20 26.5 25.5t30.5 6.5 h165q21 0 21 -13t-32 -43l-187 -171q-18 -18 -43 -18h-114q-17 0 -17 10z" />
<glyph unicode="&#xfe;" horiz-adv-x="1127" d="M48 1334v67q0 18 22 20l261 21q10 0 17.5 -6.5t7.5 -16.5v-341q0 -131 -2 -187q146 91 300 91q387 0 387 -479q0 -250 -131 -390t-343 -140q-71 0 -211 27q1 -41 1 -158v-249q0 -22 -20 -22h-142q-21 0 -21 22v1692l-108 30q-18 5 -18 19zM358 148q77 -26 187 -26 q143 0 226.5 94t83.5 283q0 342 -259 342q-116 0 -238 -87v-606z" />
<glyph unicode="&#xff;" horiz-adv-x="1075" d="M18 859v65q0 19 24 22l254 25q21 0 26 -25q7 -33 18 -93t16 -84q69 -341 121 -501q9 -27 15 -42.5t17 -35t25.5 -28.5t33.5 -9h44q134 323 234 779q5 26 28 26h157q24 0 24 -15q0 -6 -3 -18l-12 -43q-46 -177 -123.5 -394t-132.5 -346l-54 -128q-50 -117 -94 -195.5 t-101 -144.5t-127.5 -97.5t-157.5 -31.5q-81 0 -111 11q-12 4 -12 18l13 110q1 16 17 16q9 -1 26 -1q150 0 219 70q65 66 149 248h-32q-57 0 -94 23t-64 69q-44 76 -101 278q-35 127 -109 427l-114 26q-19 4 -19 19zM326 1211q0 43 27 69.5t71 26.5t71 -26.5t27 -69.5 q0 -42 -27 -68.5t-71 -26.5t-71 26.5t-27 68.5zM669 1211q0 43 27 69.5t72 26.5q43 0 70 -26.5t27 -69.5q0 -42 -27 -68.5t-70 -26.5q-45 0 -72 26.5t-27 68.5z" />
<glyph unicode="&#x152;" horiz-adv-x="1582" d="M85 646q0 154 48 278t132.5 204t195.5 124.5t241 49.5l96 3h687q18 0 24.5 -7t6.5 -24v-92q0 -17 -7 -24.5t-24 -7.5h-508v-374h378q18 0 24.5 -7.5t6.5 -23.5v-92q0 -16 -6.5 -23t-24.5 -7h-378v-469h510q16 0 21 -7.5t5 -22.5v-96q0 -14 -5 -21t-21 -7q-177 -1 -456 -1 q-70 0 -157.5 0.5t-120.5 0.5q-110 0 -206.5 22t-182 71.5t-147 123t-97 183.5t-35.5 246zM281 647q0 -106 27.5 -194t81.5 -156t143 -106t205 -38h49v999h-51q-113 0 -201 -38.5t-143 -107t-83 -159.5t-28 -200z" />
<glyph unicode="&#x153;" horiz-adv-x="1649" d="M86 481q0 129 32.5 227t91.5 157.5t136.5 88.5t172.5 29q229 0 344 -175q111 175 325 175q196 0 288 -121t92 -384q0 -33 -23 -33h-593q7 -166 86.5 -243.5t232.5 -77.5q112 0 231 47q8 3 14 3q14 0 17 -20l16 -98q0 -10 -14 -18q-144 -63 -300 -63q-249 0 -369 175 q-105 -180 -346 -180q-72 0 -134.5 17t-118.5 56t-95.5 97t-62.5 145t-23 196zM272 477q0 -191 68 -277.5t183 -86.5q114 0 180.5 85.5t66.5 276.5q0 362 -253 362q-123 0 -184 -86t-61 -274zM957 587h434q-14 253 -199 253q-101 0 -160.5 -69t-74.5 -184z" />
<glyph unicode="&#x178;" horiz-adv-x="1090" d="M16 1211v75q0 19 21 19h252q8 0 17.5 -7.5t11.5 -20.5q13 -90 57.5 -320t70.5 -299q30 -84 148 -84q14 0 95 3q81 289 174 705q8 23 30 23h153q28 0 28 -16q-1 -7 -8 -36q-161 -637 -308 -1027q-49 -132 -131.5 -188t-231.5 -56q-124 0 -177 20q-12 5 -12 21l21 111 q3 17 20 17q1 0 20 -3t49 -6t57 -3q111 0 164.5 54t94.5 186l14 46q-14 0 -43 -0.5t-44 -0.5q-116 0 -177.5 34t-93.5 110q-20 47 -43.5 138t-55.5 233t-51 218l-105 30q-17 5 -17 24zM329 1522q0 43 27 69t71 26t71 -26t27 -69q0 -42 -27 -69t-71 -27t-71 27t-27 69z M672 1522q0 43 27 69t72 26q44 0 70.5 -26t26.5 -69q0 -42 -27 -69t-70 -27q-45 0 -72 27t-27 69z" />
<glyph unicode="&#x2c6;" horiz-adv-x="733" d="M81 1127q0 9 9 20l141 175q3 3 11 12t12.5 13t13.5 8.5t18 4.5h146q22 0 36.5 -8t32.5 -30l142 -175q9 -11 9 -20t-43 -22t-62 -13q-17 0 -39 20l-141 123l-141 -123q-24 -20 -40 -20q-9 0 -27 4q-5 1 -19 4.5t-22 6t-18 6t-14.5 7t-4.5 7.5z" />
<glyph unicode="&#x2dc;" horiz-adv-x="737" d="M94 1190q0 7 5 14q80 120 180 120q44 0 99 -34.5t82 -34.5q33 0 98 58q7 7 13 7t10 -5l57 -65q5 -5 5 -10q0 -6 -5 -14q-30 -57 -77.5 -88.5t-101.5 -31.5q-43 0 -99 35t-80 35q-44 0 -101 -59q-6 -6 -12 -6q-3 0 -5 2l-65 69q-3 3 -3 8z" />
<glyph unicode="&#x2000;" horiz-adv-x="885" />
<glyph unicode="&#x2001;" horiz-adv-x="1770" />
<glyph unicode="&#x2002;" horiz-adv-x="885" />
<glyph unicode="&#x2003;" horiz-adv-x="1770" />
<glyph unicode="&#x2004;" horiz-adv-x="590" />
<glyph unicode="&#x2005;" horiz-adv-x="442" />
<glyph unicode="&#x2006;" horiz-adv-x="295" />
<glyph unicode="&#x2007;" horiz-adv-x="295" />
<glyph unicode="&#x2008;" horiz-adv-x="221" />
<glyph unicode="&#x2009;" horiz-adv-x="354" />
<glyph unicode="&#x200a;" horiz-adv-x="98" />
<glyph unicode="&#x2010;" horiz-adv-x="647" d="M96 485v135q0 17 18 17h418q11 0 14.5 -3.5t3.5 -12.5v-134q0 -18 -16 -18h-419q-19 0 -19 16z" />
<glyph unicode="&#x2011;" horiz-adv-x="647" d="M96 485v135q0 17 18 17h418q11 0 14.5 -3.5t3.5 -12.5v-134q0 -18 -16 -18h-419q-19 0 -19 16z" />
<glyph unicode="&#x2012;" horiz-adv-x="647" d="M96 485v135q0 17 18 17h418q11 0 14.5 -3.5t3.5 -12.5v-134q0 -18 -16 -18h-419q-19 0 -19 16z" />
<glyph unicode="&#x2013;" horiz-adv-x="1054" d="M92 496v112q0 19 20 19h832q19 0 19 -18v-114q0 -18 -18 -18h-833q-20 0 -20 19z" />
<glyph unicode="&#x2014;" horiz-adv-x="1955" d="M92 496v113q0 18 20 18h1733q19 0 19 -17v-115q0 -18 -18 -18h-1734q-20 0 -20 19z" />
<glyph unicode="&#x2018;" horiz-adv-x="416" d="M53 985q0 4 2 8l173 437q6 13 19 13h100q12 0 12 -15q0 -23 -76 -436q-3 -17 -22 -17h-190q-18 0 -18 10z" />
<glyph unicode="&#x2019;" horiz-adv-x="449" d="M79 989q0 14 78 437q3 17 21 17h191q17 0 17 -10q0 -3 -2 -9l-174 -436q-5 -13 -17 -13h-101q-13 0 -13 14z" />
<glyph unicode="&#x201a;" horiz-adv-x="414" d="M51 -216l79 434q2 16 22 16h190q16 0 16 -11q0 -3 -1 -6l-175 -434q-5 -12 -17 -12h-100q-14 0 -14 13z" />
<glyph unicode="&#x201c;" horiz-adv-x="749" d="M54 986q0 4 1 7l174 437q5 13 19 13h100q12 0 12 -15q0 -13 -76 -436q-3 -17 -22 -17h-190q-18 0 -18 11zM389 986q0 4 1 7l173 437q6 13 19 13h100q12 0 12 -15q0 -18 -77 -436q-3 -17 -21 -17h-190q-17 0 -17 11z" />
<glyph unicode="&#x201d;" horiz-adv-x="749" d="M55 989q0 19 77 437q3 17 22 17h190q16 0 16 -12q0 -4 -1 -7l-173 -436q-6 -13 -18 -13h-100q-13 0 -13 14zM389 989q0 14 78 437q3 17 21 17h191q16 0 16 -12q0 -4 -1 -7l-174 -436q-5 -13 -17 -13h-101q-13 0 -13 14z" />
<glyph unicode="&#x201e;" horiz-adv-x="743" d="M51 -216q1 4 13 72t32 176.5t34 185.5q2 16 22 16h190q16 0 16 -12q0 -2 -1 -5l-175 -434q-5 -12 -17 -12h-100q-14 0 -14 13zM386 -216l78 434q3 16 21 16h191q16 0 16 -12q0 -2 -1 -5l-174 -434q-5 -12 -18 -12h-101q-12 0 -12 13z" />
<glyph unicode="&#x2022;" horiz-adv-x="449" d="M97 556q0 55 36.5 92.5t91.5 37.5q53 0 90 -37.5t37 -92.5q0 -54 -36.5 -90t-90.5 -36q-56 0 -92 35.5t-36 90.5z" />
<glyph unicode="&#x2026;" horiz-adv-x="1396" d="M94 110q0 54 36.5 91.5t90.5 37.5t91 -37.5t37 -91.5q0 -55 -36.5 -90.5t-91.5 -35.5t-91 35.5t-36 90.5zM570 110q0 54 37 91.5t91 37.5t91 -37.5t37 -91.5q0 -55 -36.5 -90.5t-91.5 -35.5t-91.5 35.5t-36.5 90.5zM1048 110q0 54 36.5 91.5t90.5 37.5t91 -37.5t37 -91.5 q0 -55 -36.5 -90.5t-91.5 -35.5t-91 35.5t-36 90.5z" />
<glyph unicode="&#x202f;" horiz-adv-x="354" />
<glyph unicode="&#x2039;" horiz-adv-x="542" d="M90 415v133q0 24 10 35l278 295q6 6 12 6q3 0 10 -11l61 -98q3 -6 3 -12q0 -10 -9 -21q-22 -29 -62 -82t-73 -96.5t-63 -82.5l200 -263q8 -12 8 -19t-3 -12l-65 -103q-3 -4 -8 -4t-10 5l-281 296q-8 9 -8 34z" />
<glyph unicode="&#x203a;" horiz-adv-x="542" d="M77 198q0 9 9 20q33 44 99.5 131.5t99.5 131.5l-198 261q-9 14 -9 22t3 11l61 102q5 7 11 7q5 0 11 -6l278 -295q11 -13 11 -35v-133q0 -22 -10 -34l-280 -296q-5 -5 -10 -5q-6 0 -13 10l-60 97q-3 5 -3 11z" />
<glyph unicode="&#x205f;" horiz-adv-x="442" />
<glyph unicode="&#x20ac;" horiz-adv-x="1252" d="M59 465v84q0 22 23 22h152q-2 30 -2 74q0 38 2 66h-151q-23 0 -23 21v85q0 23 23 23h165q56 235 207 362t389 127q155 0 315 -58q24 -10 24 -28l-7 -206q0 -19 -20 -19h-76q-13 0 -18 17l-41 123q-68 24 -151 24q-164 0 -279 -94t-148 -248h478q25 0 25 -23v-85 q0 -21 -22 -21h-496q-4 -44 -4 -64q0 -36 4 -76h497q22 0 22 -22v-84q0 -23 -22 -23h-483q32 -150 141.5 -232t281.5 -82q77 0 159 20l40 123q5 17 18 17h76q18 0 20 -19v-207q0 -13 -18 -25q-8 -5 -37.5 -17t-108.5 -27.5t-166 -15.5q-250 0 -404.5 120t-198.5 345h-163 q-23 0 -23 23z" />
<glyph unicode="&#x2122;" horiz-adv-x="1401" d="M39 1210v75q0 20 22 20h533q23 0 23 -18v-79q0 -17 -23 -17h-199v-604q0 -25 -19 -25h-96q-20 0 -20 25v604h-199q-22 0 -22 19zM635 579l38 709q1 17 20 17h115q20 0 28 -17l143 -350l5 -20h5l6 20l153 349q8 18 27 18h115q20 0 21 -17l26 -711q0 -16 -18 -16h-98 q-17 0 -17 22q-6 340 -6 511v47h-6q-9 -38 -13 -46q-74 -180 -151 -346q-6 -14 -16 -14h-57q-9 0 -15 14l-110 263q-2 6 -16 36t-20 51t-6 42h-6q-2 -59 -14 -563q0 -17 -14 -17h-102q-17 0 -17 18z" />
<glyph unicode="&#x25fc;" horiz-adv-x="972" d="M0 0v973h973v-973h-973z" />
</font>
</defs>
</svg>
